<mxfile host="65bd71144e">
    <diagram id="et6ZL5nDRBVg1DVwjbSL" name="ページ1">
        <mxGraphModel dx="616" dy="570" grid="1" gridSize="10" guides="1" tooltips="1" connect="1" arrows="1" fold="1" page="1" pageScale="1" pageWidth="1169" pageHeight="827" math="0" shadow="0">
            <root>
                <mxCell id="0"/>
                <mxCell id="1" parent="0"/>
                <mxCell id="19" value="" style="rounded=0;whiteSpace=wrap;html=1;shadow=0;glass=0;labelBackgroundColor=#000000;sketch=0;fontFamily=JetBrains Mono;fontSize=14;strokeColor=none;" parent="1" vertex="1">
                    <mxGeometry x="80" y="40" width="720" height="440" as="geometry"/>
                </mxCell>
                <mxCell id="18" style="edgeStyle=none;html=1;entryX=0;entryY=0.5;entryDx=0;entryDy=0;fontFamily=JetBrains Mono;fontSize=14;fontColor=#FFFFFF;strokeWidth=2;" parent="1" source="2" target="12" edge="1">
                    <mxGeometry relative="1" as="geometry"/>
                </mxCell>
                <mxCell id="2" value="" style="rounded=1;whiteSpace=wrap;html=1;fillColor=#000000;shadow=1;arcSize=4;glass=0;sketch=0;" parent="1" vertex="1">
                    <mxGeometry x="120" y="80" width="290" height="360" as="geometry"/>
                </mxCell>
                <mxCell id="8" value="" style="group;aspect=fixed;" parent="1" vertex="1" connectable="0">
                    <mxGeometry x="136" y="94" width="60" height="20" as="geometry"/>
                </mxCell>
                <mxCell id="3" value="" style="ellipse;whiteSpace=wrap;html=1;aspect=fixed;shadow=0;glass=0;sketch=0;fillColor=#FF540A;strokeColor=none;" parent="8" vertex="1">
                    <mxGeometry width="14.906832298136644" height="14.906832298136644" as="geometry"/>
                </mxCell>
                <mxCell id="4" value="" style="ellipse;whiteSpace=wrap;html=1;aspect=fixed;shadow=0;glass=0;sketch=0;fillColor=#FFCA1C;strokeColor=none;" parent="8" vertex="1">
                    <mxGeometry x="22.360248447204967" width="14.906832298136644" height="14.906832298136644" as="geometry"/>
                </mxCell>
                <mxCell id="5" value="" style="ellipse;whiteSpace=wrap;html=1;aspect=fixed;shadow=0;glass=0;sketch=0;fillColor=#00B800;strokeColor=none;" parent="8" vertex="1">
                    <mxGeometry x="45.09316770186335" width="14.906832298136644" height="14.906832298136644" as="geometry"/>
                </mxCell>
                <mxCell id="11" value="&lt;h1 style=&quot;font-size: 14px&quot;&gt;$ cat README.md&lt;/h1&gt;&lt;div&gt;&lt;font color=&quot;#00cc00&quot;&gt;#&lt;/font&gt; &lt;font color=&quot;#ffca1c&quot;&gt;makedown&lt;/font&gt;&lt;/div&gt;&lt;div&gt;&lt;br&gt;&lt;/div&gt;&lt;h1 style=&quot;font-size: 14px&quot;&gt;&lt;span style=&quot;font-weight: normal&quot;&gt;&lt;font color=&quot;#00b800&quot;&gt;##&lt;/font&gt; &lt;font color=&quot;#ffca1c&quot;&gt;sayhello:&lt;/font&gt;&lt;/span&gt;&lt;/h1&gt;&lt;div&gt;```&lt;/div&gt;&lt;div&gt;@&lt;font color=&quot;#ccccff&quot;&gt;echo&lt;/font&gt; &lt;font color=&quot;#00ffff&quot;&gt;Hello&lt;/font&gt;&lt;font color=&quot;#00cccc&quot;&gt;, &lt;/font&gt;$(&lt;font color=&quot;#00ffff&quot;&gt;WHO&lt;/font&gt;)!&lt;/div&gt;&lt;div&gt;```&lt;/div&gt;&lt;div&gt;&lt;br&gt;&lt;/div&gt;&lt;div&gt;&lt;font color=&quot;#00b800&quot;&gt;##&lt;/font&gt; &lt;font color=&quot;#ffca1c&quot;&gt;variables:&lt;/font&gt;&lt;/div&gt;&lt;div&gt;```&lt;/div&gt;&lt;div&gt;&lt;font color=&quot;#ffca1c&quot;&gt;WHO&lt;/font&gt; = makedown&lt;/div&gt;&lt;div&gt;```&lt;/div&gt;" style="text;html=1;strokeColor=none;fillColor=none;spacing=5;spacingTop=-20;whiteSpace=wrap;overflow=hidden;rounded=0;shadow=0;glass=0;sketch=0;fontFamily=JetBrains Mono;fontSize=14;fontColor=#FFFFFF;labelBackgroundColor=#000000;" parent="1" vertex="1">
                    <mxGeometry x="140" y="150" width="260" height="260" as="geometry"/>
                </mxCell>
                <mxCell id="12" value="" style="rounded=1;whiteSpace=wrap;html=1;fillColor=#000000;shadow=1;arcSize=4;glass=0;sketch=0;" parent="1" vertex="1">
                    <mxGeometry x="460" y="80" width="300" height="360" as="geometry"/>
                </mxCell>
                <mxCell id="13" value="" style="group;aspect=fixed;" parent="1" vertex="1" connectable="0">
                    <mxGeometry x="476" y="94" width="60" height="20" as="geometry"/>
                </mxCell>
                <mxCell id="14" value="" style="ellipse;whiteSpace=wrap;html=1;aspect=fixed;shadow=0;glass=0;sketch=0;fillColor=#FF540A;strokeColor=none;" parent="13" vertex="1">
                    <mxGeometry width="14.906832298136644" height="14.906832298136644" as="geometry"/>
                </mxCell>
                <mxCell id="15" value="" style="ellipse;whiteSpace=wrap;html=1;aspect=fixed;shadow=0;glass=0;sketch=0;fillColor=#FFCA1C;strokeColor=none;" parent="13" vertex="1">
                    <mxGeometry x="22.360248447204967" width="14.906832298136644" height="14.906832298136644" as="geometry"/>
                </mxCell>
                <mxCell id="16" value="" style="ellipse;whiteSpace=wrap;html=1;aspect=fixed;shadow=0;glass=0;sketch=0;fillColor=#00B800;strokeColor=none;" parent="13" vertex="1">
                    <mxGeometry x="45.09316770186335" width="14.906832298136644" height="14.906832298136644" as="geometry"/>
                </mxCell>
                <mxCell id="17" value="&lt;h1 style=&quot;font-size: 14px&quot;&gt;$ makedown sayhello&lt;/h1&gt;&lt;div&gt;&lt;font color=&quot;#00ffff&quot;&gt;Hello, makedown!&lt;/font&gt;&lt;/div&gt;&lt;div&gt;&lt;br&gt;&lt;/div&gt;&lt;div&gt;&lt;br&gt;&lt;/div&gt;" style="text;html=1;strokeColor=none;fillColor=none;spacing=5;spacingTop=-20;whiteSpace=wrap;overflow=hidden;rounded=0;shadow=0;glass=0;sketch=0;fontFamily=JetBrains Mono;fontSize=14;fontColor=#FFFFFF;labelBackgroundColor=#000000;" parent="1" vertex="1">
                    <mxGeometry x="480" y="150" width="260" height="240" as="geometry"/>
                </mxCell>
                <mxCell id="20" value="" style="shape=image;verticalLabelPosition=bottom;labelBackgroundColor=#ffffff;verticalAlign=top;aspect=fixed;imageAspect=0;image=data:image/png,iVBORw0KGgoAAAANSUhEUgAAAo4AAAK2CAYAAADAJx0gAAAAAXNSR0IArs4c6QAAAJZlWElmTU0AKgAAAAgABAEaAAUAAAABAAAAPgEbAAUAAAABAAAARgEoAAMAAAABAAIAAIdpAAQAAAABAAAATgAAAAAAAACQAAAAAQAAAJAAAAABAASShgAHAAAAEgAAAISgAQADAAAAAQABAACgAgAEAAAAAQAAAo6gAwAEAAAAAQAAArYAAAAAQVNDSUkAAABTY3JlZW5zaG90QVo4xwAAAAlwSFlzAAAWJQAAFiUBSVIk8AAAAdZpVFh0WE1MOmNvbS5hZG9iZS54bXAAAAAAADx4OnhtcG1ldGEgeG1sbnM6eD0iYWRvYmU6bnM6bWV0YS8iIHg6eG1wdGs9IlhNUCBDb3JlIDYuMC4wIj4KICAgPHJkZjpSREYgeG1sbnM6cmRmPSJodHRwOi8vd3d3LnczLm9yZy8xOTk5LzAyLzIyLXJkZi1zeW50YXgtbnMjIj4KICAgICAgPHJkZjpEZXNjcmlwdGlvbiByZGY6YWJvdXQ9IiIKICAgICAgICAgICAgeG1sbnM6ZXhpZj0iaHR0cDovL25zLmFkb2JlLmNvbS9leGlmLzEuMC8iPgogICAgICAgICA8ZXhpZjpQaXhlbFlEaW1lbnNpb24+Njk0PC9leGlmOlBpeGVsWURpbWVuc2lvbj4KICAgICAgICAgPGV4aWY6UGl4ZWxYRGltZW5zaW9uPjY1NDwvZXhpZjpQaXhlbFhEaW1lbnNpb24+CiAgICAgICAgIDxleGlmOlVzZXJDb21tZW50PlNjcmVlbnNob3Q8L2V4aWY6VXNlckNvbW1lbnQ+CiAgICAgIDwvcmRmOkRlc2NyaXB0aW9uPgogICA8L3JkZjpSREY+CjwveDp4bXBtZXRhPgrKX6h2AAAAHGlET1QAAAACAAAAAAAAAVsAAAAoAAABWwAAAVsAAGRLUAdGNgAAQABJREFUeAHsnQW8FcUXxw/d3d1dgqAICkoj3d0I0kp3d6d0d0sjICL+VVqklZCUFJBu/nP2uZe9ezdm33v3vvve+83/8393d+bM7Ox3F+/vzsw5EyFOgmRvCQkEQAAEQAAEQAAEQAAEbAhEgHC0IYRiEAABEAABEAABEAABhQCEI14EEAABEAABEAABEAABKQIQjlKYYAQCIAACIAACIAACIADhiHcABEAABEAABEAABEBAigCEoxQmGIEACIAACIAACIAACEA44h0AARAAARAAARAAARCQIgDhKIUJRiAAAiAAAiAAAiAAAhCOeAdAAARAAARAAARAAASkCEA4SmGCEQiAAAiAAAiAAAiAAIQj3gEQAAEQAAEQAAEQAAEpAhCOUphgBAIgAAIgAAIgAAIgAOGIdwAEQAAEQAAEQAAEQECKAISjFCYYgQAIgAAIgAAIgAAIQDjiHQABEAABEAABEAABEJAiAOEohQlGIAACIAACIAACIAACEI54B0AABEAABEAABEAABKQIQDhKYYIRCIAACIAACIAACIAAhCPeARAAARAAARAAARAAASkCEI5SmGAEAiAAAiAAAiAAAiAA4Yh3AARAAARAAARAAARAQIoAhKMUJhiBAAiAAAiAAAiAAAhAOOIdAAEQAAEQAAEQAAEQkCIA4SiFCUYgAAIgAAIgAAIgAAIQjngHQAAEQAAEQAAEQAAEpAhAOEphghEIgAAIgAAIgAAIgACEI94BEAABEAABEAABEAABKQIQjlKYYAQCIAACIAACIAACIADhiHcABEAABEAABEAABEBAigCEoxQmGIEACIAACIAACIAACEA44h0AARAAARAAARAAARCQIgDhKIUJRiAAAiAAAiAAAiAAAhCOeAdAAARAAARAAARAAASkCEA4SmGCEQiAAAiAAAiAAAiAAIQj3gEQAAEQAAEQAAEQAAEpAhCOUphgBAIgAAIgAAIgAAIgAOGIdwAEQAAEQAAEQAAEQECKAISjFCYYgQAIgAAIgAAIgAAIQDjiHQABEAABEAABEAABEJAiAOEohQlGIAACIAACIAACIAACEI54B0AABEAABEAABEAABKQIQDhKYYIRCIAACIAACIAACIAAhCPeARAAARAAARAAARAAASkCEI5SmGAEAiAAAiAAAiAAAiAA4Yh3AARAAARAAARAAARAQIoAhKMUJhiBAAiAAAiAAAiAAAhAOOIdAAEQAAEQAAEQAAEQkCIA4SiFCUYgAAIgAAIgAAIgAAIQjngHFAIRI0ak+YuXUtQoUUyJTJ08iX7+30+m5SiQIzB63HhKkyatqfGunTto7uxZpuUoAAEQAAEQAIGQIgDhGFLk/ey60aJHpy3bd1j2avnSJRA0loTkCjcLztEFb7N06uRJ6tiujVkx8kEABEAABEAgxAhAOIYYev+6MISj754HhKPvWONKIAACIAACwUsAwjF4eYba1iAcfffoIBx9xxpXAgEQAAEQCF4CEI7ByzPUtgbh6LtHB+HoO9a4EgiAAAiAQPASgHAMXp6htjUIR989OghH37HGlUAABEAABIKXAIRj8PIMta1BOPru0UE4+o41rgQCIAACIBC8BCAcg5dnqG0NwtF3jw7C0XescSUQAAEQAIHgJQDhGLw8Q21rEI6+e3QQjr5jjSuBAAiAAAgELwEIx+DlGWpbg3D03aODcPQda1wJBEAABEAgeAlAOAYvz1DbGoSj7x4dhKPvWONKIAACIAACwUsgTAvHyJEjU+YsWShL1myULl06+vfff+nQgQN05o8z9PbNG8ckU6dJQ3ny5qXkyVNQ3Lhx6c6dO3T50iW6cP4cXbt2zXF7TiqkS59euW6KFCkoabJkys4j//zzD928cYOuX78u+nGRHj586KRJN9vQJhwTJEggnm1WypAxIzGTe/fu0eXLl+j8uXN09erVQD1fNyASJxHENo38XmXLlp0yZspEL1++pOPHfqejR4/S82fPTFvwlXDkbSTTiv5x39KlS09x4sShG+J9uXTxL/HOnqfbt2+b9hEF8gT4XcyUOQvxv9EUKVPSixcv6B/B9u+//6aDB/bTq1ev5BuDJQiAAAj4OYFQIRy7dOtBHxUpYory7Nk/qVf3bq5y/qLs+HVnypUrN0WIEMGVrx68ffuWHgmR9csvP9PY0aMsRQZ/+Xbu2o2Kf1aCYsSIoTbh8fnkyRPavWsXzZ83h/69f9+j3GkGX+vzipWoVOkyyhd/pEiRbJu4L8TT/v37aP3aNXTu7Flbe61BcAtHFrcTJ0+lqFGjai/jccxir3Onjh75+gwWaVWqVKU69epT4iRJDJ+rto76PObNmUUPHjzQFgX5uHrNmlS/QSOKLwSDWWLxcF0IhzGjRtCZ06fdzLwpHNOkTUstW7WmQh98aMueO8XvzJbNm2iZ2E7SSuy63YA4GT9pMqVNm06f7Tr/XYjnIYMGuM7tDpatXG3Z32+mTVH+fdm1w+V5871H/QcOMjV9I340tmja2O2HltP/xvC/z6bNW1D5ChUpZsyYptfi/9bcunWTli5eTFsFZyQQAAEQCO0EQoVwnLdwsTJyYgabhUH1yhWV4sHDRlCRokXNTD3y7969S193aGc4Ypi/QAEaMHgoxY4d26OeWQaPZI4fN4a2bdliZmKbz19Ides3IB4xDWxi4divd0/pUaXgFI6xYsWipUIIyHCbM2smrVi21PQ2o0SJQp06d6GSpUoTHztN/MV95sxpGjtqpBhpu+i0ups9P5OGjZtY7jPtVuG/k//9tJeGDxmsjERxljeEY4mSpahFq1aULFlyoy7Y5vF7e/LkCRozcoThvwV9A8tXraEkSZPqs13nz8SIa8VyZVznVgfv5c9PYydMsjKho7/9Rl2/7mRpoxZ+3aUrVahUWT31+OR3omL5sm5C2cl/Y6rVqElt27Un/jHjJPF/a7p81ZGuXL7spBpsQQAEQMCvCIQZ4VizamWa8s0MypY9u2PA/KU5asRw2rVzh6vuwCFD6eNPirnOnR7s3PEdjRo+zFE1nuqaIEbpeBo8OBLf1+JFC2nRgvm2zQWXcGSxu2TFSkqcOIntNdetWUPfTJ1sapdEjCzOmDOP4sWLZ2ojW/D69WsaMWwI7dm9W7aKm13vvv2pRKlSbnlOTngEsnuXznTi+LFgF459+g+gz0qUdNIdU1vmxO/t7u93mdpwQdfuPajc5xUsbfjHnMxoL4/2la9g3daTx4+pcoXyltdTC+cuWKRMG6vn+s+7YolH7RrV3LJlhWO3nr2obDm5frhd4L8Tnrbu2a2LIoSNypEHAiAAAv5OIMwIx9OnTtKHhT8KNG/+YucREp7Gaty0mfL/QDf2X8VpUyYr08Yy7fD6ydnzFgRqVM2u/flz54ipskWWZsElHPkeeN2hXfph9/c0bLD5dCJPN44eO44iB2KU0eraq1euoJnTv7Ey8SgbPW48FXi/oEe+0wwehatVrQqtXr/BctTy1MmT1LFdG9vm+QfGlOkzKVWqVLa2Tg22btlM48eMNq2WO09emjhlqmk5F4wfO0ZqenbJ8pWUXKxTtUs1xI9DmWUg23Z+b/nv6PudO5UfEdrryQjHXTt2EC9TCGriJQFVKn6OtY9BBYn6IAACIUIgTAjHV8IpITgExtrVq2jtmtW0VHyROZ2GMnp6POLXrEkjunrlilGxKy9e/PjEU3926wFdFQJxwGs5t281nz4PDuE4Sgi99wsWsu3db0eOULfOX5nasWgcN3GS7TpG0wZsCpyIx6CONOq7cvr0KcqQIWOQhSNP27MAlVkOoO+D7DlPsQ/s19fUfPuu3ZbLKezqc8P872yHaEfm39ssIfhXCeFvlXiUevnqtVYmyojfoYMH3WzshCP/NyaSGE03WjPt1pDkCS9lGTdmlKQ1zEAABEDAfwiECeEYXDh5Gom9lFOlTh1cTdKhgwfEF1VXy/ZGjhlHBQvZCy7LRmwKeZSj4uflTB2BgiocZaYuuYvnhQd66xbNTXvLU93rNmyimGKdpLcSr3Fr3bK54llsdQ1eOjBn/sJgEwtW19KWyYw4+uKd4T4N6t+Pftr7o7Z7ruOZc+dRpkyZXef6g9u3blG92tYjdAULfUAjx4zVVzU852n+rzq0NyxTM2vUrEVt2ndQTz0+eSq+bMnPPPLthKNHhSBm8I/KerVricgMt4PYEqqDAAiAgG8JhGnhGFwjkfxIWGy8FsLS6cgmi9HyZUqZCjYWJ7wmSybxdPqVK5eJv5BZYCVLnpxSiNBAsn2aNWM6rVqx3PBSQRGOslP7HAqmcf26ynIAw06IzP6DBlOx4p+aFbvl81o1HsG7IcIRsUNOugwZKLsIjSMzenXv3l0xbVzVrT39yYLFS4mXEDhJLAhYnMg+E6O27YQje9r37GM+Eqhvk3803BGsngrPfw4dkzBhQilG3A6HGKpdvaqbB7LaPjtxsbOQWWIWpUt8alas5Hfv2ZvKlCtnaaMWPn36lCoJpxarNGL0GMWj3MyGw2c1F7MA+hRY4cj/XeB/4/zv0elo5IkTx+mr9u30XcE5CIAACPg1gTAnHPk/4hyOZsH8eYrXJE/pFf3kE8Ur96Mi8t7W6lPj2I8zp0+jHdu3K1nsqPFpiRJUrnwFER8yq2pm+Tly2FA3xxut8YDBQ+iTYsW1WR7H/OU9e+Z0YmcSfVK8jkXoobLlP7f94rISS4EVjuzUwM4Ndok5Nqxbm/jL3yzxFDWHebFL3NbAfn1EzMRjHqYcJoW9sFlc2SWrKWv2Uu7dr79dE0o5CyQO7cRrWm/dvKnksXgt+vHH1EZ43zr1dOb1uh3aGq9x5Oe0YdMWKWHKjikzvpnqenfVm+ElEV+2baeEe2LBY5dYnHdo86WHWXLxw2XJilUe+dqM9m1ae4Qj0pYvXbnKEZ96tWpYRgpYvf5bIY4Tai/hdsw/nPgHlD45FY4ct3X+3Nluzla81pTD89SpW09KmPO/6/Klg8epSX8/OAcBEAABbxEIU8KRv8C/FjEBeUrLKHF8Ow6pIpvsxA47B7CTgF1iIcuiwijZhTXhL5dWLZrZhvDg++L7s0pWI0CBEY4fFi5MQ0eMshWsHFOxkRhptHNsmPLNdMqRM5fVLSgceJqZR1+tUtVq1al9J/N1lFxXG8ZJ39aU6TMoR46c+myPc763FmIEyyqYtsyz0TZsJRzrN2xEzVt+oTU3POaRtZbNmliO7vJo94zZcy0dSbhxHlWrKpw5HgvPZn3auHW7ZRxDDrXEIZeMkrK+8fsfbN8fbV0rRy+Z9po2amC45tiJcLQLDcSj1JOnTZeKjlCmxKeWz0h77zgGARAAAX8gEGaEI3+58UL+n//3kyVXnuKTGY1SxE69OspuM2YN8hcVT2faebX+Kkaj+vXuZdjMzt17LEcnpk+bSuy0I5MWL1uh7FxhZVutUgXDaUenwjGr2I2HxZVdYHIWvs0aN1Smk636xYHW2RvWqj0Wi9VEiBfZQNWDhw0XMT0/troscSBoo/iOdo4f3CiPnvLUO+9aY5fYG7dte/tA59yOlXCU8UDmpQz1xegu/1CwS/zu8jvM77JVYq98Fm36NGb8BMpf4H19tuvcbLSSDXgGYMjwES5bmQOr9jju6pjxE02b4femgklsSVnhyO8KvzN2if99fDNrtp0Z2Y3I2jYAAxAAARDwMYEwIxw5BiNPCdsl3llj/qIldmY0afw42rRxg61drTp1qHUb63VKZ//8k9q0aunRFn9Zr9+4maJFi+ZRxhnPhDCpLkKQyAgAtpeJh8fezOzVrE9OhCNPUc4XYsMuIDev9Wv3ZSupXWxkprxHjxzuMe2qvw/tOU/JbtyyzXJa1+i9YUcldj6xS0MGDqAf9/xgZ+Yqnz5rjtTyBjPhyOsT2ZPaLjkVIzKOTezEUbdmDY9L2z03/gFWWThlGaVeffpRydKljYpM86zEH48w80izWbJyrpERjjxCXUfEf+QfQzKJRx1z5rIeQXcSskvmmrABARAAAW8TCDPCkadCeYs3mSQzmiQbvFhGiP514QJ90bypTNeCZMOBiTlAsVXikU8eAdUnWeHIa8SWinVtdl7PPALcvcvXhiJVf20+txNVgV0PZheD8aEQAzyKqU0y6045xBJPezpJvA0js7NzojATjjxiaRdH0GpEzqyv/ANg07bvLEPrcF2j9YUy7w0H7uYA3vpktkyDndpuirWiZtENzP6t23l5c7B5o3XC3C8Z4ciB9GWC6av3WbpMWerRu496avi5fdtWZVcjw0JkggAIgIAfEggTwpEdYsqVKiGNd+HS5ZbTy062S+OLfifWaVlNsfpKOHIA9GEjrWPD9enZg/bv+9WDlYwAYGcSdhpJlDixR319xtDBA90cB/Tl+nO7bfjsYj/q21PP2ZGpb/+B6qnHp1F4FhkRwQ5Tq1eu9GjPLoPD+6QX3t9WyUw4yoxgyQbd1l9/qggknj1HDn222znvKMM7IunTqrXrKWGiRPps17lRPV6awP9ujET0n3/+QadOnKCq1T1HOLnRJWI3pAXz5rraVw+2bN9B/B6bpSpCwBqt02R7mWduVd/omjIRE/b9+gv17dXTqDryQAAEQMAvCYQJ4fjo0SNl8b4sYbvRrQvnzysOKbLtrRdernHixDE1Dy7hyB7DLNp4ypI/48eLT/HFMXt6x4kTl3LnzWO71V9QhKPpDeoKpk6aSN+uX6fLtT61W+vJ04RHDh2ybsSgNHKUyLZbR+odFOyEEF/GbK2oQRfcsho0akzNWnguW9AamQlHuzWsPMpboWxpW8ch7bXU49rCE7jVl8ae3KqN2Yib3bph3uaRf0ho08fFitFAsQ+8UeK1lPt+/ZVmzvEUh2zP+7B/+UULt6ocRH/ttxvd8rQn7OhWo0olbZbbsZ1wdPrjlBvnpSj8XlslCEcrOigDARDwRwJhQjhaeccaQbcTjmdOn1YWrRvVNcrjdYpxLPaXDoxwZKeFMmLqmUcR06ZLp6wnNBqdMeqPVV5Qpqqt2lXLzJwo1HKjT54qZceYkEp6T1s7T2GnP1S09yWzTtFMONq9Z0bT7tprWx2nSJmSWJhaJbP913k7Rl4SYJY4zmZD4WimTf0GDKLin32mzXId81pKXlNptnWg0bKFSlWqUicRlsos2e1iYyccneyVre2D3WwEhKOWFo5BAARCAwEIR4OnFFLCkddLdunWnbJkyWo55WbQZeksbwtHuz2ojToqM6VnVC+48vRM7NbA3rx5gxrUqR3oy+/as9eyrplw3C7EtVVgcQ6wzrEyA5M4niPft1WyCkNjJZCMlgOYjepqBZpVSCS9N/zgYSOEB31R0+4P7N+X/rfXnLudcHT641TtiBUXtoFwVEnhEwRAILQQgHA0eFK+Fo78pd13wEARMPoTwzVfBl0MdJZeJKkNyaxxVG3tPgf07WMbFknbhtW0pdbOW8d6D3o7YXf+3FmxZaH7VKmTvtkJUzPhaNcvoylcJ/3a+cOPlu+f2a4rfA3e/Yh/AJgljkXKS0A48Qjz1h27DK91+NBB6tG1i2JnFf9SH8h7xZq1pss0OCpBWbEG+o1FeCIIRwU5/oAACICALQEIRwNEvhSOHDKGv7SSp0hh0JPgz/KFcOSpRA5bwqM0MsnpFnoybTqxmTRhPG3a8K2rip1AMwuv5GrA5sBu5NBsy0G7frFTSdtW9sHBzbpnt87UypPcLri+dn2klcPSuDGjaNuWLUoXrdYt6pd/WPWdoy2wJ7ZVgnC0ooMyEAABEHhHAMLxHQvXkS+Fo0xAZ1fHguHAF8KRu3nxr7+UnUtkusy77/AuPCGV9MLRSoRwH3m7uSYN6gW6u3Yje2YjjnbTnkHtl50wPSk8nTu1b2t437wml6MVmCVtDMWBQ4aaOixxgG5tgHczxzMO2VPuv+36cuXOQ5OmTjO7tPKjgJ+xVYJwtKKDMhAAARB4RwDC8R0L15GvhKPMtniuTokD9pp99PAhPRD/fyoCK7OTxsOHD+iB8Bi9f/8+8RrJYsU/1VbxOPaFV7V60eVLl9Dc2bPUU9NP9gpfu2GTaTkX/HbksOWex5aVbQrXrFrptkOQXVgXOw9dq8vxCDNP01olM+Fo57RzX+xgU7NaFaumTcs4nA6vO7RKHOycg56bJauQSlqHIrP9pO/+8w/VFiPV2jR0xEgq/FERbZbrmD2reXq+VZu2VLuO+Ygij8LyaKxVgnC0ooMyEAABEHhHAMLxHQvXka+E4zrhjR3Xwhtb7RA7JXDwYnWNmJqv//R2HEf1etu3bqGy5T83XKOm2vAnC90Obb+UEnx2o3D6UUHtdYL7eI3YnYXDHJklvq+yJT+zXDNnVrdMuXLUvWdvs2Il30w4Llu5mjiIuFmy2ovcrI6aL7NcQL+uUK2rfo6fNJny5ntPPfX4/LxMKSXPTDjv3rWLhg8d7FaP44b27tffLU89UfeA5639eIs/o6QdmTQqV/MgHFUS+AQBEAABawIQjgZ8fCEcZTyJWaDwFoEsHGWSzM4xQR1xnDdnNi1bspjs1rSp/WUv2Rpi20S7bdrs1v2ZhYJRrxOcn7x3c+o0aSybHD5kMO3+3nrk0KiBsRMm0Xv58xsVufLMhKNdGCluoE/P7iLA+z5XW7IHI0aPoUIffGhprnci0htXqVaNOnT6Wp/tOufRSh5xNdtNpWe3rnTo4AGXPR+w4xiH5TEKRaU66/CuNxzj1CjJrvuEcDSihzwQAAEQ8CQA4ejJRBkh4/1+ZZNdfD39Qn5uV0bk2Y3w6PvXrkNHqlajpj7b7Twoaxxv37pF9Wq/a3/2vAWUIWNGt/aNTniauVtnc0HBdczCs6jtBTYcilrfyeeY8RMpf4ECllWsQtOYVWQRtJm39hNexVbJTDj27tufSpQKGLUzq//T3h9pUP9+ZsWm+XbT4FxRnRo2a4S3oeS9wc0Si//YsWPTR0U8w+ZYjZYuXbmKkiVL7tEsh/mpKX6U8DpIs6T+0DErV/MhHFUS+AQBEAABawIQjgZ8fDHiKLPvsNmevAZdVrLMvmC19kERjvo1i7xbzkqxLo5HkezShHFjacsm8509OHgzB3G2ShwCh0PhOEkcZmjAoMHEW9wZpb+Fo8vkiRPcisp9XoG6du/hlmd0oo8laGSjzeM2uW27ZCYcM2fJQjNmz7WszgKM1znyOkzZZBc8m9t5ItbUVv68nG2TZusXueK1q1cptnhneE2rPl25cpmaNWqoz1bOu3TrQeUrGHPjHYp4rbBZqiVY3BNrP+0ShKMdIZSDAAiAQAABCEeDN8EXwlFGRGhj3xl00y2rSNGPafCw4W55RidBmarWC0dun6c3eZrTLvHoEHsic5Bqo8Rr93gNn1Xi3UR4VxEniffu5rWfZok9eNmTV5us4gxq7azC02jt+JiXJvA+1UZTrnpbM+HIdmZexto2tLEQtflGxyyoebQxusUez1zv+507acSwIUZNuOVZ7QjDopa34TNK69asUdbxGpVZeU3zGkazEVytQ45Ru9o8CEctDRyDAAiAgDkBCEcDNr4QjvUbNqLmLa1j7nE8O45rZ5d4FIt3nJERJcE54qj26+suXalCpcrqqemnfqpbb2g3Xc32u3buoJHDjPc41rdXsFAhGjlmnD7b7dysvYVLllGq1KndbI1OTp8+RR3afGlU5Mpjx43J074xFTguw/8OrISj1eibtp1VK1fQrOnfaLM8jnnqnJcbsDe+XZIdXZVx0DK6VstmTZQQTkZlnGcXNN2o3sED+6lX925GRR55EI4eSJABAiAAAoYEIBwNsPhCOH5YuDANGzna4OruWSySWNyYpWYtWlKDRo3Nij3yvSEc+SKy8Si3b9tKY0eN9OgXZ7T4ohXVa2A8XamtwMKqq1gzqY33py3nUS0e0S1TtpytmK5Xqwbdvn1bW105btq8BTVs3MQj3yiDw8hMmTSReH2hNvE0Oa87Lc8e6CYjbVp79dhKOHKgeGYtk375+WfBeoRhIHYWswOGDDFcO6hv++7du1S7uvUyArUO3+eOXbsd3e+LFy9I9bhW29F/zpw7jzJlyqzPtjwfNXwY8bpKmQThKEMJNiAAAiBABOFo8Bb4Qjjy+kAOxyMzSshrwzjWII9u8ahd6jRpRWy7jxRhlChxYoM7MM/ylnDkOIA81cyjWHaJR4F4NMgoWa2R09rztOfRo0eFZ/NOYuejyJGjUO48eShnrlz03nv5iR017JLqlWtkxwJow+atFDNmTKNiw7ynT5/SP3fuKCOLkSNHokQJEzkSUGqjVsKRbWSWOahtsWc+70Rz4cJ5ihQpkrLdX/YcOSiNeIdkEtfnoN/chmyS8UrXtiUzatu4aTPi/8sm7jeLUTtvfrU9CEeVBD5BAARAwJoAhKMBH18IR77s1Okzib/EfZm8JRz5Hqy2ktPeI48wsdPCYxGqR58yZspEM+fMkxLU+rpOzll4durQzlIQyd6Pk+vK2NoJR25DZlpf5lp2NrwVo92uK/o2ZBy/tHVmzZhOHEHAKsmsgdXWt1sWobXlYwhHPRGcgwAIgIAxAQhHAy6+Eo558ualCZODb6s9HmWxG8EMbucYPb7+woPZbvcarsM7fnB4F6PUWuwEUstiJxCjOk7zhg4eSHt277atJhtyyLah/wzYO5lHZa080c32qtZeg9clzluwKFAjmtp2rI6dii+1rfQZMiiOQOq53SfH+fxX7Hxkl2RCBqltfLd9G40ZOUI9tf2EcLRFBAMQAAEQUAhAOBq8CL4Sjnzprj16UjmxBi6o6dWrVzRtymTisDZWydvCkad4V65ZRwkTJrTqhlK2cP48WrxwgaFdzz59iXcz8UZipxF2HpFJ8eLHp/mLlkjt8GPXHgv7jm3b0JgJEy29mGWEI1+r6MefUL+Bg6SWB9j1TV/OorFt6y+kQtno6/I57w5jJY7VOg/F9pnVKlVQTy0/x4yfIOJrvm9poxZ27tSRjv1+VD21/YRwtEUEAxAAARBQCEA4GrwIvhSOfPkp02dQjhw5DXoil8WCpHeP7kqsQg4/Y5W8LRz52qlSpSJe52bnEML9/vKLlqaxGdlT+yshhO3asbpfbRlPTy8T+2fPnztHm217zOsl54pQOkmSJrW1tTJYuniRcm2rPZ25vqxwZNvkyZMr70+CBPZCne1l0q+//Ez9+/Yh5hXYNHnadGW9qV39A/v3Ke+unR2Xf16xEnXuau8lzT+iypUqIdOkywbC0YUCByAAAiBgSQDC0QCPr4Ujd6EVT8/WrmM71azv7jURwHrIwP7K1K9MKBRfCEfuo0xQabZ7+OAB1RIeu/xlb5TY+3fw8OGUOHESo2KpPBaoLFBGjxjuKDC2tnGO7Thu4mQpMaStx8ccT3DY4EEuh6DgFI7cPk99Dxo6jD74sLDj94frq4nXns6dNZPWrrGOp6naW33WqFWb2rRrb2WilNlFDdA2wF7qW7abRxhQbY12alLLzD4hHM3IIB8EQAAE3AmECuE4bcYsypY9u3vPNWdOA0PzukJeX2iWnG4nt2rdt5ZTszJeo9wXXhvWtn0HypvvPdvpRxYj0yZPcgs3kjtPXpo4xXrN5Ncd29PxY8c8bp2FEe8JbJXmCFGxYtlSKxO3stHjxlOB9wu65RmdfDN1MnEAaKvEu6a0bPWlshUgewfLJBaMZ4Qn+vChQ+j633/LVLG14UDeHb/6WnlGdutJecRu8+ZNys402tE7uyDeRw4fou5drJccGHWU92vm0Ew8Mhc3blwjE8M89i7n/cetwj4ZVrTI5Otz1ACrxM/HiecztyXjFGQUqN6qH1wW3P+NUa9nN2W/e9cu8X4OVs3xCQIgAAJ+TyBUCEe/p+iFDn5crBhlyZKVUqRIKULLxKQ3b97S1atX6IQQfUeP/kZPDDySvdANv2uSR9d4txoWcKlFgO7kgk8sMZUcMVJEevXyFfGauZs3rouYinvpsBBgWsEWnDfDax85FifHFkybLh3Fj5+AeHecmzdv0KkTJ5RrX/zrr+C8pKO2MmXOQjlz5hTBvdNRylQplWl2HlHkdPP6Dbp27SpdunSRfjt8ONDrGB11CMYgAAIgAAJhggCEY5h4jLgJEAABEAABEAABEPA+AQhH7zPGFUAABEAABEAABEAgTBCAcAwTjxE3AQIgAAIgAAIgAALeJwDh6H3GuAIIgAAIgAAIgAAIhAkCEI5h4jHiJkAABEAABEAABEDA+wQgHL3PGFcAARAAARAAARAAgTBBAMIxTDxG3AQIgAAIgAAIgAAIeJ8AhKP3GeMKIAACIAACIAACIBAmCEA4honHiJsAARAAARAAARAAAe8TgHD0PmNcAQRAAARAAARAAATCBAEIxzDxGHETIAACIAACIAACIOB9AhCO3meMK4AACIAACIAACIBAmCAA4RgmHiNuAgRAAARAAARAAAS8TwDC0fuMcQUQAAEQAAEQAAEQCBMEIBzDxGPETYAACIAACIAACICA9wlAOHqfMa4AAiAAAiAAAiAAAmGCAIRjmHiMuAkQAAEQAAEQAAEQ8D4BCEfvM8YVQAAEQAAEQAAEQCBMEIBwDBOPETcBAiAAAiAAAiAAAt4nAOHofca4AgiAAAiAAAiAAAiECQIQjmHiMeImQAAEQAAEQAAEQMD7BCAcvc8YVwABEAABEAABEACBMEEAwjFMPEbcBAiAAAiAAAiAAAh4nwCEo/cZ4wogAAIgAAIgAAIgECYIQDiGiceImwABEAABEAABEAAB7xOAcPQ+Y1wBBEAABEAABEAABMIEAQjHMPEYcRMgAAIgAAIgAAIg4H0CEI7eZ4wrgAAIgAAIgAAIgECYIADhGCYeI24CBEAABEAABEAABLxPAMLR+4xxBRAAARAAARAAARAIEwQgHMPEY8RNgAAIgAAIgAAIgID3CUA4ep8xrgACIAACIAACIAACYYIAhGOYeIy4CRAAARAAARAAARDwPgEIR+8zxhVAAARAAARAAARAIEwQ8FvhmDhJ0jABGDcBAiAAAiAAAiAAAk4J3Ll9y2kVn9hDOPoEMy4CAiAAAiAAAiAAAvIEIBzlWcESBEAABEAABEAABEDADwn47YijH7JCl0AABEAABEAABEAgXBOAcAzXjx83DwIgAAIgAAIgAALyBCAc5VnBEgRAAARAAARAAATCNQEIx3D9+HHzIAACIAACIAACICBPAMJRnhUsQQAEQAAEQAAEQCBcE4BwDNePHzcPAiAAAiAAAiAAAvIEIBzlWcESBEAABEAABEAABMI1AQjHcP34cfMgAAIgAAIgAAIgIE8AwlGeFSxBAARAAARAAARAIFwTgHAM148fNw8CIAACIAACIAAC8gQgHOVZwRIEQAAEQAAEQAAEwjUBCMdw/fhx8yAAAiAAAiAAAiAgTwDCUZ4VLEEABEAABEAABEAgXBOAcAzXjx83DwIgAAIgAAIgAALyBCAc5VnBEgRAAARAAARAAATCNQEIx3D9+HHzIAACIAACIAACICBPAMJRnhUsQQAEQAAEQAAEQCBcE4BwDNePHzcPAiAAAiAAAiAAAvIEIBzlWcESBEAABEAABEAABMI1AQjHcP34cfMgAAIgAAIgAAIgIE8AwlGeFSxBAARAAARAAARAIFwTgHAM148fNw8CIAACIAACIAAC8gQgHOVZwRIEQAAEQAAEQAAEwjUBCMdw/fhx8yAAAiAAAiAAAiAgTwDCUZ4VLEEABEAABEAABEAgXBOAcAzXjx83DwIgAAIgAAIgAALyBCAc5VnBEgRAAARAAARAAATCNQEIx3D9+HHzIAACIAACIAACICBPAMJRnhUsQQAEQAAEQAAEQCBcE4BwDNePHzcPAiAAAiAAAiAAAvIEIBzlWcESBEAABEAABEAABMI1AQjHcP34cfMgAAIgAAIgAAIgIE8AwlGeFSxBAARAAARAAARAIFwTgHAM148fNw8CIAACIAACIAAC8gQgHOVZwRIEQAAEQAAEQAAEwjUBCMdw/fhx8yAAAiAAAiAAAiAgTwDCUZ4VLEEABEAABEAABEAgXBOAcAzXjx83DwIgAAIgAAIgAALyBCAc5VnBEgRAAARAAARAAATCNQEIx3D9+HHzIAACIAACIAACICBPAMJRnhUsQQAEQAAEQAAEQCBcE4BwDNePHzcPAiAAAiAAAiAAAvIEIBzlWcESBEAABEAABEAABMI1AQjHcP34cfMgAAIgAAIgAAIgIE8AwlGeFSxBAARAAARAAARAIFwTgHAM148fNw8CIAACIAACIAAC8gQgHOVZwRIEQAAEQAAEQAAEwjUBCMdw/fhx8yAAAiAAAiAAAiAgTwDCUZ4VLEEABEAABEAABEAgXBOAcAzXjx83DwIgAAIgAAIgAALyBCAc5VnBEgRAAARAAARAAATCNQEIx3D9+HHzIAACIAACIAACICBPAMJRnhUsQQAEQAAEQAAEQCBcE4BwDNePHzcPAiAAAiAAAiAAAvIEIBzlWcESBEAABEAABEAABMI1AQjHcP34cfMgAAIgAAIgAAIgIE8AwlGeFSxBAARAAARAAARAIFwTgHAM148fNw8CIAACIAACIAAC8gQgHOVZwRIEQAAEQAAEQAAEwjUBCMdw/fhx8yAAAiAAAiAAAiAgTwDCUZ5VqLCsXbceVatew6Ov//zzD7Vv09ojP7RkZM2WnQYNGerR3Tdv39BX7dvR7du33coGDR1GWbNmc8vjkwP799GEcWM98pEBAiAAAiAAAiBgTwDC0Z5RqLIYOmIkFf6oiEefX79+TWVLfuaRH1oyypYrT9169jLsbichHE+eOO5WtnbDJooXL55bHp9cvXKFmjZq4JGPDBAAARAAARAAAXsCEI72jEKVBYRjwOOCcAxVry06CwIgAAIgEEoIQDiGkgcl200IxwBSEI6ybwzsQAAEQAAEQECeAISjPKtQYQnhGPCYIBxDxeuKToIACIAACIQyAhCOoeyB2XUXwjGAEISj3ZuCchAAARAAARBwTgDC0Tkzv64B4RjweCAc/fo1RedAAARAAARCKQEIx1D64My6DeEYQAbC0ewNQT4IgAAIgAAIBJ5AmBCOUaJEociRI9PTp08DT0KiZpw4cejx48f05s0bCeuQMQmMcIwQMSLFjBFDuTdv9Tpq1KhK0y9evAjUJfwlHE8Mwenly5f06tWrQN0HKoEACIAACIBAaCYQ6oRjwkSJlADXnxQrTsmSJ1cEY4QIEZRn8PbtW3otvtAfPHxIB/b9SuvWrqEL5887fj4spD4rUYLKf16BsonA09GiR6dIkSK52nkrhCMLoMuXL9OuHd/R5s2b6PmzZ65y7QH3s3rNWtos1/HuXTtp08YNrnOrg0IffEj1GzYyNFm6eBEdOnhAKZMRjhHF/dWsVZuq1ahJCRIkoMhCeHNifiyK/r52jRbOn0c/7f1RyQ/Mn0pVqirPiZ8Xiy2VH7NjgX/37l3l3vkZcZ5dCgnhyHEgmzZvocTFjBM3LkWLFo3Ud43jYir3IQKr8zPcsH6dX/+gsOOLchAAARAAARCQIRBqhCOPWHEA6E8/K+H68pa5wdOnT1H/3r3o3r17MubEAqV9p68UsSNVQRixiFi0YD6xgNOnZi1aUoNGjfXZyvk/d+5QnZrVDcv0mROnTKXcefLqs5Xz6dOm0trVq5RjO+GYPUcOGjdhkiKGDRvTZN65c5vafNFSmh1XbdWmLVWtVp3UEUZNc4aHr4RQ3bZtK00aP86wXM30pXBMnDgJDRk+gjJnySL9rvEI5A+7v6fRI0dICWG+L24/b758dPvWbUX4e3vEXGWJTxAAARAAARAILIFQIRx55Gfh0uUUO3bsQN0nC7tO7dvSmdOnLeuPGD2GeGQvsOmvCxeoVcvmbsIhVqxY9O3mraYCpEqF8lJTxNt2fk88Ja9PPFr3ednSykghl1kJx/59etHQ4SOJR1RlE4+sthb3dEWMrlolXiowQYjbHDlyWpmZljG79m2/NB259ZVwLFjoA8FohGsU1rTDJgW3b92itq2/sBTbMcU7MW3GTEqTJq2rFX5Hx40ZRTu2b3fl4QAEQAAEQAAE/I2A3wtHnlZd8+1GiiumCoOSeESoRZNGdE1MwxolHmH6qEhRoyJHecd+P0qdO3V0qzN3wSJKlz69W556MnP6NFq9cqV6aviZM1cumjxtumHZubNn6csvWrjKzIQjC8znQgRGF9PuThOLoXq1a5pWY9G4bOVq4mnpoKQHDx5Q7epVDdcP+kI4lq9Qgbp06xGUW1Dq8nR/k4b16dbNm4ZtjRUjvu/lz+9Rxs+oQb06pvU8KiADBEAABEAABHxMwO+FY8tWraluffu9hflL124kjUcc27dp7YE4f4ECNGb8RI/8wGb06t6NDh7Y76rO6/06fd3Zda49+PPPP6htqy+0WR7HPXr3odJlynrkc8bY0aNo+9YtrjIz4egyCOQBT8Xz/43SwCFD6eNPihkVOc775eefiUdG9cnbwjFJkiS0ZMUq11pM/fWdnt+4fp0aChFolLbv2q2szTUqs+JsZI88EAABEAABEPAlAb8Xjpu2fWe63vDmzRs0cthQOnnihOKYwI4eHYVAYxGjOjHoYTaqX5eu//23W/biZSsoRcqUbnnqCQvSI0cO04H9++nf+/cpTdq0VKz4p8qnaqP/vHzpEjUXo5tq4lFTnmpWHUTUfP7kkdBypUposzyOV6//VjixJPTI5+nNcqVLuk2NywpHdoS5eeMG3bt/j5ILJyOj9rUXvCucQGrXqKbNUo4LFipEI8eYr098JpyGdmzfRvv37RNrQV9Rnrz5qGLlKsTLD8xSn57dFXttubeFIy+FSJUqlfaSbsfMmn8M8AgvO8nkzfceZcue3c1Gf7JuzRr6ZupkfTbt2rPXI0/N2L1rFw0fOlg9xScIgAAIgAAI+BUBvxaOLLh27N5jCOza1avKdKBRYfWaNalte/fpYtVOPzXMo5Q7vv/BUGg+efJEmd6+ffu2Wt31yR7J7ToYX4PFZukSn7ps+WDC5KlCNOV1y1NPenbrIpwjDqqnbp8ssDgmoVE6fuwYfd2xvVuRjHCcM2smrVqx3M0LmNf2DRIjh+xBbpbq1apBehZLV66iZMmSG1a5LxyS6teppXig6w369B8gPNdL6rOV8ytXLlOzRg3dyrwpHD8s/BENGznK7XraExaLnTq081h/yT8ivpk52/SHjZGw53bN1qtyGT+bFcuW8iESCIAACIAACPgdAb8WjhkzZaJZc42nR1etXEGzpn9jCnTN+g0UX4xA6tOPP/xAQwYNcGWzpzJ7LBulju3a0KmTJ42KlLyZc+dRpkyZDcv1Ti9W4mTvj3to8ID+hu1wCJ7mLY2nsgf07UM//+8nt3p2wpE9v+fPneNWRz1JniIF8eir2Wjt+LFjaKsIPaQmHuFdLTgbJXaqaVy/HrFntlmaMXuu4lmsL+fR0CoVP6cnImammrwpHMdNnET53vNcc8jXvnrlCjVtZL5Ugj2wl6xYaTr1rF9KwG327NOXSpUuw4duiT3Ma1StLOUs5VYRJyAAAiAAAiDgIwJ+LRz5S3nFmrWGKDjMToc2XxqWcSZPoebMlduj/Mc9P9Clixdd+ezY8WXbdiTUkiuPD+6JOING4XW0Rhx6pnadutos1zGvpdR7cW/ZvsNwRO+hcAqpVrmiq672wEycsgNGeTFNrU9WwvHsn39Sm1Yt9VXczoePGk0ffFjYLU89Wb50Cc2dPUs9pdbi/muZ3H+3zl/Rb0eOuGyNDnhd4fLVxs9Xv9bPW8KRR5y3mywjYAHLSw7sPMo51mPDxk2MbpHOnzsrvNLfOS+xEV9z0JBhwhmriEuk8zvQV4SNOnniuGE7yAQBEAABEAABfyDg18KRAZmJLS7jKUSO/8ciMiRSOREgvGt3Yy9cFrX6flk5kRhNA1uJGl5vx044+mQlHPViTF+Xz61GRr/fuZNGDBviqrZwyTJKlTq161w9MJqqV8v0n6vWfUsJE3qu39R7p3tLOLJ3M3s5G6UbYg1ow7q1jYrc8vg57TRZUsGjiLwO1SjxUoyECRPRy1cvlfWzRjbIAwEQAAEQAAF/IuD3wnHK9Bm2sQF5LeKff/xBRw4fIp725enF4EgsCDJkyCCcR1JQAiFu4sePr/yfdxHh7QfZ0SNmzJiGlzISjhzwmadnjZJ+NI9tihT9mAYPG25kroT8YXGlT1bCkcP2sNi2SvHEPa4V4Y+MEu8kM6h/P1fR+o2biVkYpcOHjNds6m3fL1hIn6Wc69c5eks4VhKOOp06dzHsg5k4NzLeuHW76btQ6tPg8Tg3ui7yQAAEQAAEQMCXBPxeOPJaMF4T5iSxpzJPL/L6P94KTnbXGL5GgfcLUsnSpZU4e0mTJnNNJTq5PtsaCUfOXyfEllFMSr1QYluz2JK8w0il8mXZxCOZCUeedi39WXEPe6OMnT/8aHjfeuHIU7zqdoVG7QQljx1ralar4mrCW8LRarnBkkULacE8Y6Hv6th/B/MWLqa06dLps5XzujVrWK71NKyETBAAARAAARDwQwJ+LxyZWQ2xr3Kbdu7ew7IsWTCxgwtPsXJsPbPEsRx79e1vOG1qVscq30w4cjxHjuuoTzy9W1aE5XkjPtW0ccs24l1G9Env4KMtNxOO7OFbtuRnWlPTY5525dFWfdILR6uwMvq6Ts957+8K5d45kHhLOPYfNFgJr2TUP5l1mmq9fgMHUfFPjfl279JZGQ1XbfEJAiAAAiAAAqGVQKgQjgyXw9+0FeLRSNDIwGfhNGrEMOI4efpkNV2pt5U9NxOOVg4/HL9P7R/HlWQPZ6PUqkUzunD+vFGR5ZaDoUk4slf252VKue7RW8LRTGjzhVs2a0IX//rL1Qerg6+7dKUKlSobmhh5vxsaIhMEQAAEQAAE/JxAqBGOzDFq1KiKF29F8QWdJGlSx2h59JG9irXr/Di2IsdYDO5kJhz5OrxDCQfd1ideo8mjU5x4hJVHWvXJygObbc2EkDdGHM1GJrkfzFomqaF/9PYPHz6k6hpPc28JRyvBN2HcWNqyyXi9p/7eJk6dRrlz59FnK+dWQt+wAjJBAARAAARAwE8JhCrhqGXII3I85ctesWnTppPeg/nA/n3Uu0d3V1NW+0izEa89PPrbb3T61Ekx1X2D/hFxCe+IXVR4KtVKzFgJxwaNGlOzFp5hcXiXlYr/Tc+a7WazdctmGj9mtKv/+gNfCsfNIryQ0d7Xf124QF80b6rvWpDOrVh3at/OI4wNB0032p1GH5eRt7PkbS2N0ndix5sxI0cYFXnkmXmHsyGHTeLwSUggAAIgAAIgENoJhFrhqAfPDielypShMmXLGwaVVu21ThdRokRRdvFQy7SfvOawe9fOlrEIreL3WQlH3p1ls9hKUR1t016Xp0d5V5ytO3YZlvP+x1ZrNX0pHM3EklYAa+8tKMfeEo68LpHXJxolHplmT3SZ9N33PxhuKekkNJHMdWADAiAAAiAAAiFJIMwIRy3EnLly0eRp07VZrmOeEuURIPa8zpEjJ3G4H6P0rfDGnjppolGRK2/O/IWUXoTrMUpWwpHtZ86ZS5kyZ/GounnjRvrjj9PUpZtnfEiz/aK1jfhSOFpNz7LXN3t/B1fylnC0WnPKo8oVPy/nthe40f1YhVl6IAJ7a6fcjeojDwRAAARAAARCCwG/Fo6z5y0wDHHCU6F2I0FW4VHUUbsy5cpR9569DZ+Vfns9vRHvOLONRwUNvI/Z1k44mgmh27du0fXrf1PefO/pL0mrxTaLMy22WeQKvhSOJUqWot79jLdK5F1j2CvZLvFSgbRiz2d9Wrd2DU2f9m7tqRkvrheUqWquz7sTsYA0SrxvNO8fbZXmL1pCvG+1UbJbWsBe8yyweWQSCQRAAARAAAT8nYBfC0ezUTmGaudwsGDxUkqdJo0hfzUgM8dsHD1uvKHNoYMHqWc348DQHPx79vwFpmKDG7QTjiw4WXiyANUn3m3EKD4i72P87/37enO3c18KR6t74E7ZiabGTZsR/98ozZw+TQjlla4ibwpHXuPIax2NEo9Qs1f0Lz//z6iYvurclSpWNvam5gq88wzvQKNPHJapfIWKyvPna9wUNr16dLPd3lDfDs5BAARAAARAwJcE/Fo4Wn2hc7iWrzq0FzvGnPHg1b7TV1S1WnWPfM7QBs9mAbh+0xZDO87ctmULTZ443uXYwCKPt+Tr0buP6S4hamN2wpHtxoyfQPkLvK9WsfzkdY08UmqXfCkcuS9mQcrVfu7c8R1NnzqFeMpWTQkTJaLBQ4dT9hw51Cy3T15GwKF4tDEtvSkceX0s75ZjNnrMwo5jZ06ZNIH+/fdfpa88Pc3LCbJkzerWd+3JtWvXqEmDetos5bhdh45KeCl9Aa8N5WltfreRQAAEQAAEQMAfCfi1cLT7QmegN2/eUGLtPXv6jFKkSkmpU6exFHW8hnDi+LGuZ2G1bR4bcRgbHuXjEUAWmkYOLa7GNAcywtFqxFPTlHI4f+4cWrp4kT7b49zXwpFDJPFuOEbe1WrnWHg9EuF12LOYn6nRaKpqy5/6PbE5z5vCkduvXacu8S4ydonvRcQaMhWZan2eem7aqAGxeNQndnxibkaJRfbaNauNipAHAiAAAiAAAiFOwK+FI9Np274jVa9ZM1hAsXCpLJwdtKFRzELjBPWCMsKRr7FJeFfHiBHD8nIsVrjfMs4mvhaO3PEPCxemYSPNQwRZ3pyukMMfNW/S2GPNn7eFI3eD9xHnkcTgSLwuktdHGiWrHXeMRLNRG8gDARAAARAAgZAg4PfCkaHwOkQenQtK4nWD7dp8SefPnfVoxso72sP4vwwWc1s2bTJd3yYrHHuLbQ5LlHq3Q4rR9S5dvEgtmjY2KvLICwnhyJ3gpQHtOnaSHpH16LjIuHfvLjWoU9twqtYXwpEFPHuKZ8qU2ah70nnrhWPPtCmTTe3NQvdwBRlnHNOGUQACIAACIAACXiYQKoQjM+javQeVLf95oITJrZs3FccDFmBGieMqfjNjFqVLn96o2COPp68nT5xALEa79ezlUc4ZssKRr8mexVaJRQiLEZkUUsKR+8bhjcZMmGg5bW10DyzCf/3lZxo1fBg9fvzYyMTrU9Xai3bq3IV4G0qniddmDh08kP63d69l1W9mzaasWbN52DCH5k0awUHGgwwyQAAEQAAE/IVAqBGODCxpsmTUrUdPyiW2djNbI6aC5S9h9lRdItYFbt9q7gCj2vMnr3OrXbcexU+QQJvtOuY29+/7lUYMHaIInI+LFaOBg4e6yrUHTvY5/nbzVoodO7a2uuuY18qVF44iLEpkUr8Bg6j4Z595mLLILSfiV8qk7bt2G3p779i+nUaPHG7ZREThLV5TbJVYvVYtS69zboTv7cSJEzRi2BBicW+VPilWnAYMHmJo0rplC4+R5JVr1lGixIk97HmPb/bIt0u8MxE7ZxUt+rHtmkx2mNm6eRMtW7JYajlBvPjxaY7wyk+QIKGrG/xuzZ45g1atWO7KwwEIgAAIgAAI+BuBUCUctfB4LRpPXycVe1YnSJiQnj55ojgs3Ll9my5dukg//fij21pGbV27Yw7jkz9/AeFsk4peCg9X9gg+/vvvdFZMcwd3vD3evYa37osUKZJht86cPk3t27Q2LPP3TN6PO3vOnMqWkOy09Oz5M3r06JHiCX/i2HG6I7Zv9PfEnta5cuWmDBkzKvEmo0ePoaxJ5Vibly9dojNnTgd6hJB3rUmaLClFEP/bs+cHW/Hs76zQPxAAARAAgbBPINQKx7DyaNqLdYFVq9cwvZ2e3brSoYMHTMtRAAIgAAIgAAIgAAK+IgDh6CvSuuskENPh1WvWonoNGupK3p1iu7p3LHAEAiAAAiAAAiAQ8gQgHH30DGKJreWWrM9J/EgAACQLSURBVFgl1iq+pJgxYhI75NglJ04xdm2hHARAAARAAARAAASCSgDCMagEJevzbimr1q6XtCa6euWKEkBaugIMQQAEQAAEQAAEQMDLBCAcvQxYbd6JcHwutp5rJsKy2Hkaq23jEwRAAARAAARAAAR8QQDC0ReUxTVkheND4cHN4WJuC+9wJBAAARAAARAAARDwJwIQjj56GlbCkWM0siPM5o0baNGC+T7qES4DAiAAAiAAAiAAAs4IQDg64xVoaw6MXbJUaeLA0hy8/IEIGv23iAXI8SE5gDQSCIAACIAACIAACPg7AQhHf39C6B8IgAAIgAAIgAAI+AkBCEc/eRDoBgiAAAiAAAiAAAj4OwEIR39/QugfCIAACIAACIAACPgJAQhHP3kQ6AYIgAAIgAAIgAAI+DsBCEd/f0LoHwiAAAiAAAiAAAj4CQEIRz95EOgGCIAACIAACIAACPg7AQhHf39C6B8IgAAIgAAIgAAI+AkBCEc/eRDoBgiAAAiAAAiAAAj4OwEIR39/QugfCIAACIAACIAACPgJAQhHP3kQ6AYIgAAIgAAIgAAI+DsBCEd/f0LoHwiAAAiAAAiAAAj4CQEIRz95EOgGCIAACIAACIAACPg7AQhHf39C6B8IgAAIgAAIgAAI+AkBCEc/eRDoBgiAAAiAAAiAAAj4OwEIR39/QugfCIAACIAACIAACPgJAQhHP3kQ6AYIgAAIgAAIgAAI+DsBCEd/f0LoHwiAAAiAAAiAAAj4CQEIRz95EOgGCIAACIAACIAACPg7Ab8VjomTJPV3dugfCIAACIAACIAACHiFwJ3bt7zSblAbhXAMKkHUBwEQAAEQAAEQAIFgJgDhGMxA0RwIgAAIgAAIgAAIgIBvCfjtiKNvMeBqIAACIAACIAACIAACdgQgHO0IoRwEQAAEQAAEQAAEQEAhAOGIFwEEQAAEQAAEQAAEQECKAISjFCYYgQAIgAAIgAAIgAAIQDjiHQABEAABEAABEAABEJAiAOEohQlGIAACIAACIAACIAACEI54B0AABEAABEAABEAABKQIQDhKYYIRCIAACIAACIAACIAAhCPeARAAARAAARAAARAAASkCEI5SmGAEAiAAAiAAAiAAAiAA4Yh3AARAAARAAARAAARAQIoAhKMUJhiBAAiAAAiAAAiAAAhAOOIdAAEQAAEQAAEQAAEQkCIA4SiFCUYgAAIgAAIgAAIgAAIQjngHQAAEQAAEQAAEQAAEpAhAOEphghEIgAAIgAAIgAAIgACEI94BEAABEAABEAABEAABKQIQjlKYYAQCIAACIAACIAACIADhiHcABEAABEAABEAABEBAigCEoxQmGIEACIAACIAACIAACEA44h0AARAAARAAARAAARCQIgDhKIUJRiAAAiAAAiAAAiAAAhCOeAdAAARAAARAAARAAASkCEA4SmGCEQiAAAiAAAiAAAiAAIQj3gEQAAEQAAEQAAEQAAEpAhCOUphgBAIgAAIgAAIgAAIgAOGIdwAEQAAEQAAEQAAEQECKAISjFCYYgQAIgAAIgAAIgAAIQDjiHQABEAABEAABEAABEJAiAOEohQlGIAACIAACIAACIAACEI54B0AABEAABEAABEAABKQIhErhGCFiRIoUKRJFihiJ+DhChAhSNwsjEAABEAABEAABEAgpAm/fvqW3b97Q6zev6fXr18pxSPUlsNcNVcKRRWKUyFEoUuTIgb1f1AMBEAABEAABEAABvyDw+tUrevnqZagSkKFGOEYWYjFK1Gh+8aDRCRAAARAAARAAARAILgIvXzynV0JEhoYUKoRj5ChRKEqUqKGBJ/oIAiAAAiAAAiAAAo4JvHz5gl69fOm4nq8r+L1wxEijr18JXA8EQAAEQAAEQCAkCISGkUe/Fo68pjF69Bgh8exwTRAAARAAARAAARDwOYFnz5769ZpHvxaOUcWaRjjC+PydxQVBAARAAARAAARCiAA7zLwQax79NfmtcMRoo7++MugXCIAACIAACICANwn486ij3wpHOMR485VE2yAAAiAAAiAAAv5KwJ8dZfxWOEaLFp0iiiDfSCAAAiAAAiAAAiAQngi8EcHBnz9/5pe37LfCMXqMmNgRxi9fGXQKBEAABEAABEDAmwR4h5lnT5948xKBbttvhWOMmLECfVOoCAIgAAIgAAIgAAKhmcDTJ4/9svsQjn75WNApEAABEAABEACB8EwAwtHh08eIo0NgMAcBEAABEAABEAgzBCAcHT5KCEeHwGAOAiAAAiAAAiAQZghAODp8lBCODoHBHARAAARAAARAIMwQgHB0+CghHB0CgzkIgAAIgAAIgECYIQDh6PBRQjg6BAZzEAABEAABEACBMEMAwtHho4RwdAgM5iAAAiAAAiAAAmGGAISjw0cJ4egQGMxBAARAAARAAATCDAEIR4ePEsLRITCYgwAIgAAIgAAIhBkCEI4OHyWEo0NgMAcBEAABEAABEAgzBCAcHT5KCEeHwGAOAiAAAiAAAiAQZghAODp8lBCODoHBHARAAARAAARAIMwQgHB0+CghHB0CgzkIgAAIgAAIgECYIQDh6PBRQjg6BAZzEAABEAABEACBMEMAwtHho4RwdAgM5iAAAiAAAiAAAmGGAISjw0cJ4egQGMxBAARAAARAAATCDAEIR4ePEsLRITCYgwAIgAAIgAAIhBkCEI4OHyWEo0NgMAcBEAABEAABEAgzBCAcHT5KCEeHwGAOAiAAAiAAAiAQZghAODp8lBCODoHBHARAAARAAARAIMwQgHB0+CghHB0CgzkIgAAIgAAIgECYIQDh6PBRQjg6BAZzEAABEAABEACBMEMAwtHho4RwdAgM5iAAAiAAAiAAAmGGAISjw0cJ4egQGMxBAARAAARAAATCDAEIR4ePEsLRITCYgwAIgAAIgAAIhBkCEI4OHyWEo0NgMAcBEAABEAABEAgzBCAcHT5KCEeHwGAOAiAQZAIx4iWmVHk+Vtq5fOR7evHkYZDb9PcGIkeNQek/KKt089qxn+jpg3/8vcvoHwiECwIQjg4fM4SjQ2AwDxUEosWISdFixPbo69u3b+jhvTse+fqMSJEjU6y4CfXZyvnjB3fp9atXhmXIlCNQof8KSp6tEPHzWNG+KD25f0uuYii2ipUwOdWd8rNyB3+f+Jm2jWgciu8GXQeBsEMAwtHhs4RwdAjMwrzhh0loXM30isXI767RhF1/W1j7Z1G5xp2oVL02SueeP31Mfaq/7+po8RrNqVLL7sr5q5cvqWflPK4y9SBRijQUL1Ey5fTq2ZP04vlTtcjtM2HyNBQ/cYDd3ZtX6f7tG27lQT1pPnA65SlaxrCZeQO/pOM/7zQsUzMLfFaJGvWeqJ66ff72w2ZaNLyTW154OYkixHjjOb/TteP/o+0jmwTqtpPn+JAq9F2m1D3/y0baM+1rt3YiRo5CCVJlUfJePn9CD25cdCs3O4kWOz7FTpRSKX5w8xK9fPaY4qfMRJGiRKM3r1/SvatnzapS3OTpKUq0mEr5/esX6PWLZ4a2kaJGpxSi/zxayjbM4eafh0X7cj8kSnaaJkYdyyltbxpQk26d+83wOnaZcRMmpcQp0ypmD+7epjt/X7Ks0mH8CkqX4z3F5uKpIzS1S32Xfevh8ylL/o+U87//+oPGt63iKsMBCIQHAhCODp8yhKNDYBbmjQsnoTE10isWs366Sf02Xraw9s+iOp1HUOHytZXO8aha1/LZXB0t3+RrKtOwvev869KZXMfqQZdvNlLqLLmU033bVtLK8b3VIrfPDhNWUsbcBZW83/duowVD3rXrZhjIEyvhuHBIBzq6d6tly1bCketyG+ExqcLx+ql9tHVYg0AhqDNpL8VOnEoZbVzW9kN6JkZwtSlOkjRUe+IeJevlsye0qIXnDxStvXpctMUwyl6irnJ6etdS+mV+f2o89xhFiR5LydvQryrduXBcNXf7bDjzMLHw5LR9ZFMhCH9yK+eTEh0mU4bCFTzyOePYppl0cMVowzJtZsz4Sanu1J8pQoSIxOJ2decS2mLp4zqdh4t/p3UU+78vnKExrY37pTbYd9Ee4h91nG5ePkcjWwRMmfN55282UJosufmQHty9RQPqBIhIJQN/QCAcEIBwdPiQ/VE4JkyYgCqUL0vFPilK+fLmoaRJEtP9fx/Q+fMXaP7CJbR563aHd+kbcwhHIq1wPLBjLS0fEzBCqX8C3haOPKKpjsjwtau360/J0mZWuiEjHKPHikNps+V1dfv9EpXpg7I1lXMIx9/p+un9tHXou1ErFyibg5S5PqLyvZcoVry2cee4Vp41IkSgFkvOufLnNvD8geIq1ByU77WIUuYuquT8umgQnfpukZtwtBrhsxKOESNFUvqcPPsHmqt5Hp79aR3tndHNs0CXU67nQtf6zs2DaisjljoT21MIR1tEMAABaQIQjtKoAgz9TThWq1qJpk4cR5EjRzK9k70//UwNm35Bz58/N7UJiQIIR/8Rjvrn33HiKsqQK2DaXUY46uuXrNOaKv43TR8ehSNPAeev0ZHSFSxD0WLFU0YLn9y9SQ/vXKXrp/bTpUM76J+LJ/XYPM4r9FtOqgBj4ckC1Cg1nHVEuQ6XrehQlB7ftV/KUGvc98qUM9fZPLgO3fzjULAIx/zVO1CBGl9xs0o68/1yOrN7OUWOFoPyVPiC0r1fSi2i3ZM70F/7rUezU+crTmW7z1PqBHatI4SjCzkOQCDIBCAcHSL0J+E4fsxwalAvYPqFb+Pp06d04a+L9MefZylD+nTK6GPEiBGVO9y5a7ciHh3erlfNIRwhHL36goVA49GFg1CZLrMpSeaA9XFmXWAnl3kNA9YlmtnwVDCP7HHi9YeLWrwb0dXXqTJ0AyXOEDB9um14Q/r75K96E49z7bQ0t83X0OYFdsSx/rR9FCN+EuV6LBp/ntfX7drakc7b53+njf2ru5UbnTSZf4LYy5q5LWlVwLFXOYSjEVXkgUDgCEA4OuTmL8Jx8oQxVKdWwH9wX716TS2/bEfbtrs7MKRNk4a+27KeeCqbU9nPq9LRY8ZrllLGi0qFM8ahguliU5zoEenwpcf08/mHdPaWsbOGEbY40SNR/jSxlP/nTBmT7j5+RWdvPqVNx+/R7YcvPaoYCcf4MSNT2ZzxqViWuHTzwUv69cJD2nn6vkddfUbkiBEof9pY9EH62JQtWQy68+gVHbj4kPb/9YjuPZFbiK9vU+Y8ONc4BsdUdeSo0SjLex9RVrF4P2WmnHTv5jU6d3Qfndj3PT17/FDmlhSbkBxxjBk7HmX/oLi4j8LCISgF3b52kc4e/YX+OPQ/U+ch6RvzsmGN0d9R/FQBU/xvXr8Wo3gHKUXOwvTk3k26IUb0kmbKR7GTpFYEkJ1wzFG6IRVpOkjp8V/7ttDuKR1Ne1+8zTjK/HFVpZzXKvKaRbvUfMlZZe3gm1cvaX6T7Ip5UIVjovS5qOqwja5LL2iWy8Nxhh1reLRTTUvbFPJYt6mWqZ+lu8yitAVKKqc/ze5Ff+5ZpRZJfUI4SmGCEQhIEYBwlML0zsgfhCMLwZNHDxCPJj5+/ITKVapGf/75bo3Tu94S5cyRnX7YuUXJ4rWOLVq10xZTjCgRaW7jzFQyezy3fPVk9x//UrOF5+jZyzdqluFntzKpqHOplCT0m2FiAVh1+hm3Mr1wjBwpAjUvktTNhk9+u/KYasw8Q4+fG/eBheKGttkpgRCd+vTmLdHAzZdp5t6b+qJgOfcn4ViwVDWq22UkcWgcfWLHnWVjutGR3e++1PU22vOQEo6fVGlM1dr1UwSNtj98/FoIHHYKOvHLLn2RX5yzR3KNMTuUvvDI2OKW+YiEUwd7VfMIII8EcmJhmVE4jRxZO0k5N/tTpttcSvPep0oxj9rx6J1ZylPxC/qgXk+l+MS2ebR/yTDlOEepBpSzbIA3NzuX7Bz7hZLPI6MNph9Ujh/dvkorvyquHAdVOH7UeIC4XmOlLStnlsZzjwsnnACvbHV9pVLJ5E+ucs2ocKO+SilP8++aEBDJwMTcIxvC0QMJMkAg0AQgHB2i8wfhuHj+LCpTOuDXd5UadWnf/oAvAPVWWCzmyZ2Tdu/ZS7dv36F9/9utTF2zuPykxDvvwLQJo9H3X+eiuGKkUJtYbGkF4D9i5DDfkKP08rUo0KUoQuz91DUPZUgcza1E3wYXJuvm3k+tcHzw7LVHP7QNrjh0hzqt/EubpRx/nDkurW6Vza2/r8TFeQRSm9Yc+YfaLb+gzQqWY38Rjo17T6L8n1V0uycWL+yNqk3bF06k75ZM0WYZHoeEcKzVaSgVqVjPrT9G97Bh5gjas2aOm50/nOQu35w+bNhH6cqVo3tox5gWpHpVa4WjbF+16xZXffUpPbx9xbRqqjyfULmeC5Tyy0d2CSea1spx5UFr3abNeWSRRxiTZX2fKg4IGLXThgoKqnAs3WWmGBkMWMN4du9a2juzu2Gf1biUXHh86xw6sHSEoZ2ayWKbR3M5sVc5j1I6SRCOTmjBFgSsCUA4WvPxKA1p4ZgieTL67SCHp4hAf128RIU/fheeomnjBjR0cH+KohlxYuF4+coVer9AfuFp/S9ly1XAdU/bO+ZUppU549Hz1/Tl0gvEI4yvhfAqkikOLWyaxSXmZv/vJvXdcNlVVz0YWiUtffFxQHxBzmO7aXtu0PV/X1C0yBHp/XSxlFiNGRNHtxSOXJeFadtlF2jbyXsUXYyETqiVgSrlDZhmZzGYsc8Rev7KfdTxQM+8lC5RgGjlKelas/6g49eeKKOPw6umper5E3HTSioy+jidv/1MPQ2Wzw/K1KCilQNGkp4+ekAzejZxtcvOJVXbBIyS8Ijf5K9qucrUA61X9fMnj+nahdNqkdtnqow5KFrMWEqePhwPT023HbPEZX/26K+0ZERnJVRIrLjxqX73sZTzw8+UchZi/Wt9SI/+dQ/p4qr834GvhWPseAlp8OoDynvNXbgu4uPN6d+a7t64QikzZqfWI+YTx+Lj9OrFc+pRKQ+9efNaOfeXP9qp5Zt/HqHNg2oFSTi2WHpeuTV+ZnbT2toRxHtX/qB1PT9X6mpH9jhDXf+YtXhN+qTVKMVGO0KpFY7/XDpFPBpplNLkL0nsPc1JG46n8uB1lERMx3P6feMMOrRyjHKs/1Pyq28ofaGySvaFXzfTD1M76U08zp3w0Fd2Khyrtx9A6bIHrFO9cPwA8Y8VNX1asyXl/7SCcsqhfVaO76UW4RMEwgUBCEeHjzmkhWPzpo1oxNCBSq/rNmhGP/y4Vznu1b0zfdWxnXJs9oentTNmC4jxVkpMTS9tkVUxZTGWb8jvHmsBU4h1j0f65FNG83gEMVv/I8Qjg2pKnSAqHewVUM55Xyw+TxuPGQuSqu8lpG+PupdpRxy5Pk9l85S2Np0dUsAlXstOOkVHrz52FfP0+rL/7oGFZc6Bv9G/T9/1jw15NJLXS3Lae/aBIiyVEz/5oxWOsl3SC8fBq/ZTnASJleqHv99AS0Z29mjqy5ELKdv7Hyv5p/b/QLP7tvSw0Wb4Wjg2HzhDBCAvrXTBKDYer90ctu4wRRWeuZx2LZ9OW+aNVY795U/CtNmp2oiAZSHcJ/YY5viGjWYfdZuqlukvx1JkEcfp9cvntKBpTttqzRb9qYg5dUQuRtxEVH/6Abd6qpgrWKcr5ascMN3LIXE4NA4nrXB0q2hxohWOdSb+qKzhZPMDy0fS8c2zDWt+8sUIyvppbaXsxpkDtGWI+0izUaVmC88QBzvnpI6cGtkZ5dX+ahh9VKGuUvS3+HE2prX76LxRHeSBAAgYE4BwNOZimhvSwnHMyKHUuGE9MdryhlKkzaL0U7vm8e3btzRpyje0dPlqZbp60vjRFCdObMVOKxy/bZOdPhLOMJwGbLpCM/Yah++YXj+ja9Su0fyztOPUO0eVXuVS0VclUyptXLjzjD4adVw5lv2jFY5X772g94f/7lF1TqPMrlFHvTCdUjcD1X4/QDBtOnaPWi4+51GfnXV4ZJUTC+S0vQK8VD0MQygjqMKRR+O6zQwQK69evqDuFXIpjhf622GHk2HrjyjZj+7/Q/1qfaA3cTv3tXAcuvaw2LIwvtKHb2cMox/XznPrD59olwXogzJ7GIdQhtY5hrvA08Isdu5fO6eEvHn+6N2/H6suxkuRgWqO3aWYcJ0lrd+3MlfK6k39hWImSCZ2ZXlN8xtnpUxFKtOn7SYoZY/uXFOCiKsjodrg3Dw6yaOUnIIqHFkkR40Z8N8VKyeWwo36Ua5yTZVrakdIlQyTP9q2eU2m2WioUfUqrXsRjxRyunjqN5rUKSDGqJEt8kAABKwJQDha8/EoDWnhuG7VUipapDA9fPiIMucImBIaNmQAtWwWsCC9/6BhNHP2uy/dRIkS0onf9rscadQRx6N98xGPKHLiaeX7TwJG6v6L3qPk8yrBpHGjUPwYkZXz6T/eEI4m79ZZLRJT2WVzBXzZ8zQ2T1M7SVrhuOvMv9Rg7p8e1QdXSkutiwVMhesF7qZ2ORQvaq7Uasl52vC7+4im2tjVkQWJ12JyStXjEPHopL8krXDk0cJVEwLWyOn712b0YkqfM7+SrR1xLFKxPtXqNMRlzl7UShJLGdTEyxo4xU+SQvnkHxedy2RWjs3++Fo4jt32h8upp1uFnMp0tL5vPPXP/eL0+MF96lvDXkzp2/D2Oe90wtO1sRIFsNZf7+mDf+iYmMLl6WGr5CYcH/+rhKCxsucybczHhc1y00dN+iujei+ePKRzP61XnFbUnWWqDPmWEmcMmH1gkclik5NWOG4RcSNvnzuq5Ov/sEg12jlGK+6shOOHDXpT7s9bKM3y1obregRsK6i/jvZc27eVnYoRi2HZ9FmtL6hyqwDnIZkRd9l2YQcC4ZEAhKPDpx7SwvHgL3sobdo0busb169ZRkUKf0gvxTq61OmzedzR5m9XU6GCBRQPbFU4XhtV0MOBxKOiLkPvYPJz9zyUOUl0xYrXFvJUsJOkFY7zfrlFvdZf8qjeo2yAtzYXDNlylabuue6yOdw7H/F0OafyU07RkcvvprFdRuLg1MD8lChWgPj1xjpH7bWcHmuFY2DC8WhH4Zxcu0fF3JahbXwpHNkLnIUjJ17P17lMwEi6/n54RJJHJjnpt3fU24b0Oa93zFq8FiVKn9PDQYn7xh7H63qUV6ahjfrKHse8PpGT7FR1kWaDib2oOX3buxJ92n6isvc0B80+vnWuK4g2O5ZUH7FVibWoCkmlkvijFWeBieNYe8IeipM0jdLcweWj6NjmWWrTbp+ftBqp8OFM2e0Y1al4rjO/cTbp/a7ZvmDJqtSg5zg+JKt/Z4oB/oAACFgSgHC0xONZGNLC8dzp35Wp5wMHD1OlagFrhFQxee/efcqex3MUZvaMKVS54ucu4cgexywc1cTTvDLpu1P3aPXhf1ymvP4xVfwA4VZs7An6Q8RsdJK0wtFsr2rtdLheOGrXPxYedYz+uvPc8PKHeuelNAmiKWU1Zv5B/zvnTOAaNhpMmUEVjuw0kr1gMaU3Tx79S3+fPyPVs5m9mhJPbZslXwrHBElTUv+lPyld4ZA7XcsHxBQ06tuEneeVbJlRU6P6vs7jaVsehXsuRg3vXzsvvJkLuLpgF1bGqTNI9pL1qGjzoUr7P4iYj8XbTlDWPLKAO7ljETWdf1Ip2zPtayrWerRrCn1t97KuPgVVOGq9uHl9I69zNEqlvp6u7KrDZed/2UjcJ7vklIe2vYx5ClH7ccuVrF3Lv6Gt88dri3EMAiDggACEowNYbBrSwvHIgf9RqpQp6JzYh7po8dJK77dtWksF8r+nbCmYVgR91qfVyxcp+1hr1zhqp28z9j1sGiNR35b2fE/n3JQjRYCzQsN5Z6UCdWvrB1U4aj2qK39zWgn2rW1fPf5jcH7XdHuhEcfo8l1jgana+/IzqMKRvT859iGnv04eMfTcDsz9+FI4csig8TvOKt20EoTsVT1o5a+KnZ3ADMw9e6OOPhwPB+nmYN2ceHR1fuPs9NbEO1wbjmd1l5L04MZFpZ7ZH/Zm5mlyTuf+t14EBK+mHPM0ME8Hq2sgtWUXD35H309sq9jxn6AKR60gPPe/b+nH6V1cbWsPKg1cQ0mzBCy9OLZpJh1cMVpb7HGsdTxSnX88jJABAiDgEwIQjg4xh7Rw3LhuJX34QUG3NY4Tx42ienUCFnvXa9hMid+o3haH5jn/xzGKFi2aa8SRy7SjcHpvZbWu3eeshpmoSr6EitnwbVdp0u7rdlXcyoMqHNd9mY2KZoqrtNlRxHhcKWI9GiXttHzy7gfFF7aRVcjkBVU4FipTnep3Cwh5wjusDG9aMlhupMP4FcSjNJyWjupKh3atd9Sudk3ZiV930VwRWscqjd12RqxxjKKY8NpFXsOoT1kLFKU2oxYp2Q/v3aH+tT/Um7jO4yVOJpxtErjOnz1+RHdvXnWd++pALxzFvDU1mXdc2T6P+8BTyhz2xihpd0v5dcFAOrVzsZGZKy9S1OiuUUXePpA9s1VHGTYq2Wkapf+gnLJdn+rAwkHIf1s32dVGUIUjx7HkeJacHv9znVZ0DPDkd13gv4OmC05RpCjRlLP/zelDf/ywQm/ids57XH9QP2CN4sUD2+n7SdYRJNwq4wQEQCBYCUA4OsQZ0sLRyKtauzsM71ddrVYD+u3o7xQjRgzatH6V4l3Nt6kdcVzeMiuVyBZPufsFv96iHus81xfaoelUIgX1Lp9aMeMg4RwOx0kKqnAcXzM9NfgwiXLJX8T2iNVmeE7Tls4Rn5Y0D1gz91TsfpO+92EnXfS6bVCFY6IUaajvoj1KP3m0blD9ovTvHWdOSkY3yevBeF0Yp53Lpjme2uO4kV8MnaPUv3buFI1tU0k5NvszRMRwjB0/kVK8e9Vs2jTbc4qzxeCZlPujUooNx88b07qCWXM0coP4sfRf3Es2YtE4pGFxU3tvFXgIR3Eh7TrADf2q0p0LAWsZ9X3IXqIuFW0xTMm2m9ZW62oFGedpPZazfVaXPm4Z0J5qv2t8a7p0OMB7m/OCKhy1gbq5vUVi95yXTx/xoStpRw951HVxy/eUfbJdBgYHZbvPo9T5Ap4fBxXn4OJIIAACIUMAwtEh95AWjg3r16VxowP+41+uYnVFIPItLFkwm0qXKuG6m5cvX1KUKFFc53ygFY7vpY5F33UKmNZmJ+NPx5mvUWQHFBaZi/bddmuPd5xhxxPVY5lHHHnkUZ+4vI8QmFqPbLYJqnDU3gO39/GY42Jv7Wd8qKRIYi3nns65KKvYkpATx5Fs/V9QZSXDD/4EVTjyLfSev4uSpM6g3M2lM0dpUsdahiF5eEr4k6qNxZT2Ybryp7FYUZGUrNOaKrbsrpyyEB1Yr4haJPXJcSU5viQnFgf9ahYyHEVUG2PPcPYQ58SB0Pl6z568Exy8DrLPwh9cntfrpg6inzYEjD6qbWg/Q0I4clzCnKUb0b7FQ4hjE3LSC8ekmfNTpUFrlDJlNLBJNgaknOv/RI0ZlxrOOqw417x68ZTYU9ou1Rq/m+ImS+cyO/XdIuIt/ThxqB6ertYmvXdyUIUjt62N5Xj5t92ubQ6V64oR1+oi1mWCNOK+RZJyjBF1eH0mj1AqQvOL/B5iVGnM4g8vveB3SE2D6huPhKrl+AQBEDAnAOFozsawJKSFY9o0aejgr3uUvmnXOfK+1bOmT6ZKFcq79ZvjPZ46fYZy58rpJhzZaH6TzPR57oDpPBaP8365SVuEo8xZsbsKb0eYL1VMqlsoMeUTItNstO7LYslpUKUAL0pu88DFR0pMyN+Eh3PyeFGoUPrY1LV0KiWIt9WWg4FxjuHraXe/4Z1nen17iX4S3t3pE0WnARVTU84UMdmM+P7eG3qUbj54qZz7y5/gEI7J02Wm7rO3u3ZdefzvPdqxdCqdP3ZAeB+/EGF8CigONLmLlFKmg81G9LRMoseKQ8OEB7O6O8j929fpzKG99OJZgAPUqf176I/DAQ4t2nraY3Z4Ub+sXzx7Qid/3U0P7wcsJ7h15QL9vGmpy5wDfLPYU/fZ5qlqHnW8dPo34inqSi17iOndgKlN3qGnd7WA9XGuBnQHISEc36vajt6v1VnpycNbV+jK0R9EyJi/lSlW9l7m8DEJUmdx9VRmq73yvRZRytxFlTraQNuuRnQH2v2tuei70c3p6u8/uqyazD/hmiZnEabfkSY4hKN2X2m+MG9p+OePqylytJiK13fiDO8EsMw9pStYmkp9PUO5h6u/7xX31Mx1P7IHozYdp6j/7Y3Nddhzn+8fCQRAwDkBfxWO/wcAAP//rekAaAAAQABJREFU7d0JnE31/8fxD2NsRVGRkgqRoqJNkihrSkpFaNEuJJVSCllKKSKRJFRa7Etkz9JCQou0b1qo9EvJOjP8zudM53bunXPvzHfmHnPvmdf5P37uved8z/ee8/xO/3nP95zv9xQqVab8fknApUTJg/L9qKZPniTn1qtrH8c1nW6RhYuWhI6pWrWq0rJFM6l2QlVZtXqNzH5jnhx6yCFy8kk15O/t22XFyndCZQ8pkSJvdKkh1cqXCK2L9mZX2j457oG1npsnXn+CND/5UM9t7pXle65xf5Rr6x4hQ9ocZ697buWv8tDsTWHb9cP9zY+WOy88yl4/YO5PMnLZ5rAy1a1jX9D9JCmRWjhsfeSHxxf+LE8u+iVydb5/vnvUbKl4wsn2cby/cJq8OuRez2PqNux1qVzzDHvbRyvelAkDuoaVa9K+i7S4vocUKlQobL3Xh6WTx8qcsYO9NoWtu/jGnnJhu9vC1jkfPlw+VyYOvMP56Pla9bS6cvvjL3se019//Cr92tUL26/hFTdJq1t6eZZ3Cu7fv08mDugmH62c76zyfB0yd6MUKVostG3rLz/IoOsuCH32402Nxh2kXqf+Oar6+zULZMlTt2db9sgTz5KWD71ql/vpo+Wy4PEbYu5zRtuecmqr/9psQqeTJWPv7tA+F/edLOWrnW5/3vPPNnn51sz3ToFrx30sqcUz/3/cnL5XyG9fr3c2hb12HLNWih2c+d/8/MHXy8+frAzb3rDLMKlSr1XYusgPa6cMlQ9nPhO5Osvnix58RSrUONteH+uYsuzoWvHYnE+kaPGSoTV3NT1B9GeJBQEEzAV27dxhvtMB2KMQwTG68mGHlZUN61dL4cKFZfv2f+T8xi3k559zH4puP/9IeaBFRUlN8Q4dGzfvlBdX/S7j3/0t6kE1s4LjyHaVpXTxlCxl9qTvk5dW/y69Z24K25aT4KihUcOjLg/O2iRj3/41rA79cGjJIjL55mpyasXMX3juAjv27JMbXvxaln35l3t1wrzv8fR0qXTiqfbxxAqOnR9/SarVzgxaa5fMkpcH35XlHModU0Vue3S8lCmf6RVZIH3vHvl2wwcyc/RA2fz9l5GbPT+f0fgyaXXzfXJwmcOsQFc4VCYnwVELVziumnTqO0rKHllRUoqkhvb3Co66sXKtM+WWgeOkmMcfaNv/3CqjenaQLT98HarH602ZckdJn0nhQWb6yIdl5awXvYrHdV3JQ8tJtYZXyrFnNJVSR1SUogeVDrml7d4pv3/zkXw8Z0yWoBXrIK4atkxKlTvGDjqvdT1Xdm6L/t9h5XMulkZdh9vV7dr2u7zSJfMPTKf+Om26S+3LMwO/HsvsPpc7m+zXa8Z+KEVLlrLfxwpp7Z9ZJSUOPcIuN3fA1bLl8/fD6tEPZ7a7V2q2uEEKu9pd16fv3SWrXx4kny/JDMS6Ltpy8OFHS9vhK+zNf2/5XqbcfWG0ojHXD571cdjPVI8mVWKWZyMCCEQXIDhGt/Hckgg9jnpgjwzoKzd2utY+xvT0DOl+170ydfpMz2PO6crypVOl9jEHyQnlSshv29Pk2627ZcPPO0V7G3O6aHCsU+lgOfmoEvK/Heny2eZd8skvOyVjn/8dyMWtXsc6lQ6S4w4rLv/szpA1P/wjm//am9NDD0y5IqlF5biT60iVWmeJvv910zfy89ef5jgsJgLEIYeXlxPPaCCly5aTPzZvki/WrpQdf2/L0aE17aC9r/8F653bt0nvy8N71nJUURwKaa+c9s5psNKAlZulfLU6cnHfKfau362aK0ufjt3Tm5vv8HOf0uWPlfLVz5CMtD2y5bP3YwbfyONocvdzUqlOZlic9VBr2frtJ5FF+IwAAgdYgOBoCJ4owTElJUVefekFOb9B/dAZfLrxM3l/zVpZtmKlLF/xjuzatSu0jTcIFBQBdy+unvNrT/aS1fMzg9eBNihasrRcM3a9bP5stcwb2D7XX39R70lS4aTM3sNXu5xjFL5y/aX5vOPBVo9t26eW20ehl8L1kjgLAgjkvwDB0bANEiU4Oofdvt2VMmTwIClSJMVZFXrdv3+/pGdkSCHr//R+nirWJdE9e/aEtvMGgSAKuO9v1Mvbfa7KvD8uP85VL/vq5d/NG1fJvEEdcn0IxUuXFb3fUZdN65bIvvS0XNeVLDuWOORwu6dSj1f99J5MFgQQyH8BgqNhGyRacNTDP6rCkfLUk49JjRrV5fDDDrPvffQ6rao1TrXvifTaxjoEgiBw+FHHSu+JS0On8uKgO2T9srmhzwf6jRMcf/n0PXnzkY4H+uv5PgQQQCDuAgRHQ9JEDI6Rp3Bi9Wpy3rnnyOGHHyalSpWS9PR02bFjpzwxbIRkWD2QLAgEVUDvjWzd+UGxutjl7/9tlRmj+gf1VDkvBBBAIF8ECI6G7MkQHA1PieIIIIAAAggggECOBAiOOWL6rxDB8T8L3iGAAAIIIIBAwRIgOBq2N8HREIziCCCAAAIIIBAYAYKjYVMSHA3BKI4AAggggAACgREgOBo2JcHREIziCCCAAAIIIBAYAYKjYVMSHA3BKI4AAggggAACgREgOBo2JcHREIziCCCAAAIIIBAYAYKjYVMSHA3BKI4AAggggAACgREgOBo2JcHREIziCCCAAAIIIBAYAYKjYVMSHA3BKI4AAggggAACgREgOBo2JcHREIziCCCAAAIIIBAYAYKjYVMSHA3BKI4AAggggAACgREgOBo2JcHREIziCCCAAAIIIBAYAYKjYVMSHA3BKI4AAggggAACgREgOBo2JcHREIziCCCAAAIIIBAYAYKjYVMSHA3BKI4AAggggAACgREgOBo2JcHREIziCCCAAAIIIBAYAYKjYVMSHA3BKI4AAggggAACgREgOBo2JcHREIziCCCAAAIIIBAYAYKjYVMSHA3BKI4AAggggAACgREgOBo2JcHREIziCCCAAAIIIBAYAYKjYVMSHA3BKI4AAggggAACgREgOBo2JcHREIziCCCAAAIIIBAYAYKjYVMSHA3BKI4AAggggAACgREgOBo2JcHREIziCCCAAAIIIBAYAYKjYVMSHA3BKI4AAggggAACgREgOBo2ZfESJaVQoUKGe1EcAQQQQAABBBBIboH9+/fL7l07E/IkCpUqU35/Ih5ZsWLFpXBKSiIeGseEAAIIIIAAAgj4JrAvI0P27NntW/15qThhg2OR1FRJTS2al3NjXwQQQAABBBBAIOkE0tL2SnpaWkIed8IGx0KFC0vx4iUSEo2DQgABBBBAAAEE/BLYvXuX7N+3z6/q81RvwgZHPauiRYtJSpEieTpBdkYAAQQQQAABBJJFICM9Xfbu3ZOwh5vQwZFex4T9ueHAEEAAAQQQQMAHgUTubdTTTejgqAdYxOpxTLV6HlkQQAABBBBAAIEgC6RZPY3pVo9jIi8JHxwVj4EyifwjxLEhgAACCCCAQF4FEnlAjPvckiI46gHT8+huNt4jgAACCCCAQFAEkqGn0bFOmuCoB6z3PKYWSWXAjNN6vCKAAAIIIIBA0groQJi09LSEHUHtBZtUwdE5AQ2QKdbk4CmFU+wwyRNmHBleEUAAAQQQQCBRBfSJMDrNTsa+DMmwJvlO1Cl3YvklZXCMdUJsQwABBBBAAAEEEPBHgODojyu1IoAAAggggAACgRMgOAauSTkhBBBAAAEEEEDAHwGCoz+u1IoAAggggAACCAROgOAYuCblhBBAAAEEEEAAAX8ECI7+uFIrAggggAACCCAQOAGCY+CalBNCAAEEEEAAAQT8ESA4+uNKrQgggAACCCCAQOAECI6Ba1JOCAEEEEAAAQQQ8EeA4OiPK7UigAACCCCAAAKBEyA4Bq5JOSEEEEAAAQQQQMAfAYKjP67UigACCCCAAAIIBE6A4Bi4JuWEEEAAAQQQQAABfwQIjv64UisCCCCAAAIIIBA4AYJj4JqUE0IAAQQQQAABBPwRIDj640qtCCCAAAIIIIBA4AQIjoFrUk4IAQQQQAABBBDwR4Dg6I8rtSKAAAIIIIAAAoETIDgGrkk5IQQQQAABBBBAwB8BgqM/rtSKAAIIIIAAAggEToDgGLgm5YQQQAABBBBAAAF/BAiO/rhSKwIIIIAAAgggEDgBgmPgmpQTQgABBBBAAAEE/BEgOPrjSq0IIIAAAggggEDgBAiOgWtSTggBBBBAAAEEEPBHgODojyu1IoAAAggggAACgRMgOAauSTkhBBBAAAEEEEDAHwGCoz+u1IoAAggggAACCAROgOAYuCblhBBAAAEEEEAAAX8ECI7+uFIrAggggAACCCAQOAGCY+CalBNCAAEEEEAAAQT8ESA4+uNKrQgggAACCCCAQOAECI6Ba1JOCAEEEEAAAQQQ8EeA4OiPK7UigAACCCCAAAKBEyA4Bq5JOSEEEEAAAQQQQMAfAYKjP67UigACCCCAAAIIBE6A4Bi4JuWEEEAAAQQQQAABfwQIjv64UisCCCCAAAIIIBA4AYJj4JqUE0IAAQQQQAABBPwRIDj640qtCCCAAAIIIIBA4AQIjoFrUk4IAQQQQAABBBDwR4Dg6I8rtSKAAAIIIIAAAoETIDgGrkk5IQQQQAABBBBAwB8BgqM/rtSKAAIIIIAAAggEToDgGLgm5YQQQAABBBBAAAF/BAiO/rhSKwIIIIAAAgggEDgBgmPgmpQTQgABBBBAAAEE/BEgOPrjSq0IIIAAAggggEDgBAiOgWtSTggBBBBAAAEEEPBHgODojyu1IoAAAggggAACgRMgOAauSTkhBBBAAAEEEEDAHwGCoz+u1IoAAggggAACCAROgOAYuCblhBBAAAEEEEAAAX8ECI7+uFIrAggggAACCCAQOAGCY+CalBNCAAEEEEAAAQT8ESA4+uNKrQgggAACCCCAQOAECI6Ba1JOCAEEEEAAAQQQ8EeA4OiPK7UigAACCCCAAAKBEyA4Bq5JOSEEEEAAAQQQQMAfAYKjP67UigACCCCAAAIIBE6A4JiETVql6gnSpVs3qVDhKNm+fbvMf3OuTJ86NQnPhENGAAEEEEAAgWQSIDgmU2tZx3pa7doyZOhTUqhQobAjf2vpEhnU/+GwdQfyw4SXJkmxYsWyfOULz4+VRQsXZFmf1xVXtbtaLru8TZZq/vjjD+na+dYs61mBAAIIIIAAAnkXIDjm3fCA1vDK61OkXPnynt/ZpnUr+WvbNs9tfq9cvGyF51fMmTVThg8b6rktLysHPjpY6p5TL0sVGRkZ0uzCRlnWswIBBBBAAAEE8i5AcMy74QGtYf7ipVKkSBHP7xzYv58sW7rUc5vfKwmOfgtTPwIIIIAAAvkvQHDM/zYwOoK58xdKseLFPfe5p0d3+XD9es9tfq8kOPotTP0IIIAAAgjkvwDBMf/bwOgIHnviSTn9jDOz7JOWliYtmzWRffv2Zdl2IFYQHA+EMt+BAAIIIIBA/goQHPPX3/jbS5QoIc+NGy8VjjoqtG+6FRr7PtRbVq9aFVp3oN8QHA+0ON+HAAIIIIDAgRcgOB5487h84ymnniblrUEyOhjkvXffkV27dsWl3txWQnDMrRz7IYAAAgggkDwCBMfkaauEPlKCY0I3DweHAAIIIIBAXAQIjgaMepk4PT1d9H5Cv5dChQtLqjV6eu/evX5/lV1/qVKlZMeOHbm+RzI3wbGwdY76PzU1XfyajqfkQQfJbqv31s97RVNTU+2R8fndS2xqTnkEEEAAAQQSNjjedMutcnLNWp4t1Pv++2SnFXJysgx45FE5+OBSWYp+8/VXMnLE8CzrnRW1TjlFWrW+TGrXriMHW6EqJSUlNOn2/v377bDzx9atsmL5Mpkxbar8/vvvzq5RX/sNGCiHHHJolu0zp0+T5cvesrYdIr16Pyi1TjlViv87clq/a8rk1+W50aPs/Vq0bClNm7XIUsfmX36Rxwc/kmV95AoNpI0uuEBaXNRSqlc/0R6hrefmLPutwTUaVjdt2iSLrYm733hjjuzZvdvZHPU1J8FRA9Pt3e6QU63L7DoXpXOOGhw1tH77zdcy4qlh8qP13dkt8QiO+ofA9TfcKPUbNLDbRScwdyZW12PatXOn/Pzzz/LSxPG5vn+07GGH2ROVn9fgfCl/5JF2YHS+Q9s2w/qev62n/7y/6j2Zbv0cffvNN9mdOtsRQAABBBDIN4GEDY7Pj58oxx1/vCfMmNHPyJTXX/fc5l5ZrVp1GfXcWPeq0PstmzdLx6vbhj47b6pZYapPv4flyAoVnFU5en175Qp5ZED/mD2Ei95aHgom7kqXv/WWTJs6WYaNGGkHVPc2fb940UIZPGigvVqfGlO7Tp3IIqIDZJo3uTDLeveKZs1bSNfud4oGppwueg/lixPGy6SXXoy5S3bBsXGTptLj7nuiTiXkrvzrr76SnnfdaT9O0b3e/T4vwVGnM3rYCvGnn36GaJDOyaKPdhxjhff58+bmpLgULVpUeva6Xxo2usCzzaNV8tlnG6XPA/fLn3/+Ga2IvV57Rs86+2wpU6asrF+3Vr7/7ruY5dmIAAIIIIBAPAQSNjhecmlr6d7jLs9z/OrLL6XzLTd5bnOvvOfe+6S51bPmteij8F55+aWwTW2uvEo6d+kats7kw26rZ+76jh1k61bv3sdowfGDNWvk1NNOE+2R81riERwffXyInHnW2V7V52jdd99+K7fcdINoj6TXEis4pqWly+VXXOG1W9R1GtRu7nR9VMvcBkf9g2D0mLFSqnTpqN8da8Obc+fKk0Mei1XE7jmeOOlVq6f74Jjlom3UsN696+3y+WefeRa59LLLpGu37mGhV3squ9x2ywG5jcLzoFiJAAIIIFAgBBI2OOq9bwusp6R49QjpZcTmjS/ItoEmT5sheqkwctFLhBe3aBZ2CVZ/GXfr3iOyqPHn7X//Le3bXuk5yjlacNSg4L5cHPmleQ2Oern+nHrnRlZr/Pnjjz6Uu7rf4blftOC4YcMnUjPKLQeeFblWahDXxyh6XSrPTXCsXKWKjLJCY7Qn77i+OubbtR+skfvuuduzjP7cTp05W0rnMpg6lerP+I3XXWNfKnfW6euxxx0n2hvvXO52b9PR9Q9ZvZUsCCCAAAII+CWQsMFRT3j4yFHWfY41Pc+9d697Y953poM9ZszxvqyovTO33NgpVK9eup0x+w0pEqXHL1Qwh28WzH9Thgx+NEvpaMExS8GIFXkJjnpZWy9vx2u5/96esub91VmqixYcsxQ0XKG3APR76MEse+UmOE6ePlPKli2bpa7crND21XaOXPTe3HbtO0SuzvJZe269/ihyF9Qex66db3Wvkq53dJfWl7cJW+d80HtTL2ra2PnIKwIIIIAAAnEXSOjgqIMW+vXPvLcv8szffedt6dP7gcjVoc/6y1t/iXstw558QubOmR3adHfP+0QHnURb9P6xt5YukV+3bJHDjzjCenLLGXKaNWjGq9dH69DeooubN80yWtgkOGpvm47e1sudM6ZNk1EjR9iHZ3qP40uvvBY2Wbj7HDW8rLPuj3t/9Wr5a9s2OaZSJWlwfkP71V3O/X7TDz/IDVZPWOSS0+Co5/TD99/LP//8I0eUKydHH310ZFVZPmvIjxw0Yhoc77izhz3YKUvl/67Q2wtmz5xpXx7WQTv16teXCxs3iXr7gN5TelWby+Rvq4fZvcx5c0HUe0h//XWLfa/qpxs22KO2y5QpI3dYt2PUP69B1J+la9q3Ex345CzRzlu3a096k0bnO0V5RQABBBBAIO4CCR0c9WzfXLTE85e3Bo/WF18UFWTMuBekSpWqWbbrZeEW1iAS93Qrr7w+xR7lG1lYg1WfB3vbE2xHbtOBO2OtJ7hE6zXqcUdX+eTjj8N2yy44ao+RDvxZtnSp/PXXX2H7Oh9MgqMe28Ilb3mGkp3WiGG9FOo1GvyyNldIF2v0s9eiJk0uaJhlU06C4/SpU+XZUSPD7PUJOIMff0KOrlgxS53OCq9Lw9EClLZvswsbObvar3rv6LwFi6K21Qdr3pdePe8J20c/aE/0s8+/EDXczp45wx4F7uyol6kXLl3mfAx7/fmnn+S6ju3D1jkf9P7P27t6e0cOBIvVo6nT+1xi3YLBggACCCCAgF8CCR8cBw1+TM6ue47n+Uf2xjiFNDDNtwKn132Des/dnV27OEXt1wVWuPIqq9PkxJqyJ9Yv8dEjn7ZGSk8J+55YwVF74rRnLbupaEyCY81ap8hTT48MOwbnwx1dOsvGTz91PmZ5jRa8teClLVvY0+e4d8ouOD49fJjMmjHDvUvovQauFya+JBWPOSa0zv1Ge1+1B9e9mATHWEH4px9/lOuviX5pWUdH620MOhI7ctlmjXy+4rJLQ6v1Hkp9HKTXMvn110JTKnltnzpjlhxq9UBGLjrifsDDfUOrtZfy1SnTPO/TjAyyoZ14gwACCCCAQJwEEj446lyOw0c+43m62oPlXMJ1F6h3bn3pP8h7TsO+Vg/iO2+vdBeXq9pd7dnjOO65MZ6DXJydYwUFr9AZKzhmF+Sc7zQJjjoI5LbbrZBcqJCzu/365//+l+30Ord0vl2uatsubD/ng953FzniN1Zw9LpXz6nLeT3CugXglclTPXtHtUzk5WqT4Dj2hQlyfOXKzleFXvWWgssuaRmzjbXwlW3byq2dw//YcCq5rsPVoQEshx9+hLw2dZqzKexVp9np1vm2sHXuD2eceaacdHLW+3l1fk+9tO9e6ljTCPXrP0B0Sh5d9BK1BsyB/fvZn/kHAQQQQAABvwQSPjjqic+eN19KliyZxSDaXIzRQoX26ull6ngu0QLTzBnTZeTw8EEp0YJjTkeJ63GbBMe8nKdOY6TTGXktGoA0CLmXaA5aJjL0ufdzvx/xzGgrPJ3sXhV6r/NIjh/3fOhztDb2ulS9yLp87HVLgd47qL3W2S3a2/iGde+i1z2tkZeS585f6Nk7qd+h81MOH/pkFrvsvj/admfGAJ3zUW8hYEEAAQQQQMBvgaQIjvc90FuaNM1675b2tLRs1iTLpNvRguZq6+kcvXt5h6Fo0Po0lxOqVZPDDjtcDjn0UPtyok61Urr0IdbAlYPkFOspKF6LSXDMaYDR74lXcNQgdbx1n+aRR1aQMtZI40P13Kz/6fyGOiJdn17jFdb1GEyCY7R7IrWeyCXWiOGF8+eHPRknp8FR72/U+2SjLXr/ZE6W088407NY5OXhp0c/KzVqnORZ1lmp95d++cUXsm7tB/aTh/RyOQsCCCCAAALJIJAUwVHvfZvw0iRPz+HDhsqcWTND22KV7W7d2/ipdY9jrEUvP19xZVv7qRwaGr16qmLt72wzCY7ZjRB36tTXvARHvcR5YZMm1ojw2lKuXHnPHjT3d0V7bxIcI+8DjFanrtfH8vW1LsF6LZEDZHIaHHUQk8576NcSOXeiPiFHHxtpsmiPs97bqrdQzLJ6qrN7aoxJ3ZRFAAEEEEAgngJJERz1hKPNwacDPPT+QGeJ1mulvTytLmruFMvyqven9e3fX2qc5H2pNMsO2awwCY6RAyBiVZ2b4KhzOd7/YJ+4zWFoEhw3fPKx3NktZ0/jiTX3pl7mve3mG0M0OQ2OscJoqLI8vPG6dzEvTyDSXnT9mX500ADRWzFYEEAAAQQQSCSBpAmO+ihA/YUcuUQ+o3nS65OlfPkjI4uFPe85cqM+jWPM2HFxmwBc60+U4HhJq0ul+13eTzmJdMjpZ5PgGNkjF+s7tHdX70f0WnSAyI3XXxvalNPgGOtezVBleXgT7fGXOpL7dutnNrc91nqv5mOPDpKlixfn4ejYFQEEEEAAgfgKJE1w1PsLp1mPcvNa9DF4+ji8WIMYOl3b0XOqG70Hbqb1hBmv6Va8vsu9Tu/fixYMEiE41jrlFBk2wns6Hvd5mL43CY7ZTXfj/u5q1U+0Hgn4nHtV6H1kz2VOg2N2T87RHr6cLM7AmMjy660J1O+9+y7PKnQqnyutkekXX9LKnuzcs1CMlfpd+kx27W1lQQABBBBAIBEEkiY4KtbESa96TsasE2brVCStL7tcuna/M4trrPvsdOJlnYA52qITcesj9j7fuFF++ulH2bp1q/xh/W/79u32LtFGEydCcBw34UX72cbRzu3HHzfJh+vXy2cbP7Uui26xzut32frHH/azoZs1byE9e3k/99gkOJo8Bi/W035WLF8m/fv2CZ1KToNjrClyplhzK44ZPSpUp59vdKLzSy5tbd9fWqnSsaJPp8nJ8v7qVfLAfffmpChlEEAAAQQQ8F0gqYJjtGChj327vNXF8vSo0Z73KHrNqejITps1R3QQjNcSOQVMZBl9XJ6GWa8lv4NjrNHE2lN67z13yfp167wO3V53/Q03Ssdrr/PcbhIctQJ9mok+1SS75eGBg+Tc+ud5Fotsw5wGR60sWrjXwNzt9v/uj/X8Yp9W6sj8xk2bStNmLaTqCSdE/ZZYf/RE3YkNCCCAAAII+CSQVMEx1qXodle0kZdffc3zPkV9pvD/rJ40ryXaU2N0lKte3o61RLvvUvfJ7+CoU8Lo1DBei9exRZbTkcg6ItlrMQ2OOv+ihvDsFn1Ci04H5LU89sggWbRwQWiTSXCM9vzo7dYfHJdZf3Dk96JzV+ocll6LXq7WuUd15DULAggggAAC+S2QVMFRsZ61BrF49dDo84bPOPOsLJ5btmyRju2yDqpxCkbrjdLL0/ff29Mp5vn68quvy5EVKnhu8wpn0SYA92NUddPmzeXeXg94HtvQJ4bIvDfmeG7TlfrEmTcXLo56/6ZpcNQBTJe3biU7d+yI+p3tO14jN9x0s+d2r/BkEhz7DRgo9c9r4Fl35ATeXoV0tLc+5q+Ydc+ie9lnhTr9GdH5GHXRJ9RUOvZYdxH7/Xfffhs2IjxLAWuFPnLRa18t2/Hqtp4jrPVRjcWt52nHcvX6LtYhgAACCCCQW4GkC46mo2Qnjn9BXpo4IapPtKeK6OXvNlbYifZEjmjBxfmi/A6OOmfj408OdQ4n7PWDNWukV0/vkdYaksaOnyB6b2C0xTQ4aj16yVV7cJ17Q911X9C4sdzf+6Go80p6DbCJ5u/15JgTa9SQkaPHuL8y7H2/Pg/K2ytWhK1zf9B9tQ6vpX3bK+W3X3+1N415fpxUqep92Tm7p+foPKXRntXduGF46NW5Rgc9+lhowI0G8+nWc9WfO0D3a3o5sA4BBBBAoGAIJF1w1FHM2humvWLZLdpTpXM3xrq/LtpTZrTub77+Sh68v5f8/vvvoa/SS8B39bzX89nHoULWm/wOjrHmRNTjfHPuXBnx1FDRxzDqop5n1z1H9Ck90Z4YYxe0/slNcNR99XLr/HnzZOGCN+1BRtWqVxftaaxWrbpTtefrc8+Olsmvhd9LahIctdKpM2bZT/3x+gL942DsmGdl6pTJss/16L6atU6xnwl9aJkyXrvJph9+kBuuuya07aZbbhW9D9dr0UFCOp/ll198nmWzDujSgV1ei/7s6j2izqLPp9bZBfQe1sjlxQnjRf/HggACCCCAgF8CSRccFeKJYcPt0anZoXz/3XdyUyfvAR7OvoOHPOF5idvZruFTex8zrNBTxgoQ0abfcco7r/kdHPU4Yt0zqNu1d+6vbdvs+0I1aDpTzui2WEtug2OsOqNtizY4xDQ4auAfYQ2einWO6vH3339J4cIpUlo9rD9SYi2RPZU64EVDXaz9fv11i+jP5e5du6XC0UdJxYrHxAzqb8yeLU8NfSJ0GLEGLWU3yX2oEt4ggAACCCCQS4GkDI5n160rgwY/nu0pPz18mPUItxkxy+nk3zptTbyXRAiOHa65VjrdeFO8T82ox1F7GXPSOxztIHvedafn6G/T4Kj197j7HmlpzakYj0Ufc6mPu4xcspveKbJ8rM/aG6w95k6vsJYd8Mijck69cz130z9ymjQ633MbKxFAAAEEEIiHQFIGRz3xufMXxpy0Wy8/Nmt8Qdilx2hguf1l/9ork6JemkyE4KjnG2t0dDQPDSBz58yRi1t5hyyTHse5c2ZLfesZ1NGmPIp2DLr+5RcnyoQXxnkWyU1w1Ioe6vewnN+wkWedOV2Z3dyKem+p3mOal0XvW+zS+Tb7dgl3PfoUIH0akNeiAVNHYLMggAACCCDgl0DSBsdYI2UVK/IZ1tkB6ghkHYmc02XxooUyeNDAqHMEJkpw1CmMRj37XMyJwN3nrJdrRzw1TDS4xGMCcO2ZmzZ1igx9aoSUPeww91dFfa/BddTIp2XGtKlRy+Q2OGqF9uMAu3aLedna64vV5HXrXkudXii75Z5775NmLS4y/g6tVwfb3H9fT9HHLEYuej/oqOfGRq62P3/04Xq5+87unttYiQACCCCAQDwEkjY4xvoFqjAD+vWV5cveMjLSXqLuPe6SoytWjLqfDojo36+PfZ+aFoo2xc6rk16WcWPDH58Xbc7I+fPmyhOPPxb1O90bogWmPbt3S8vmTd1Fw95fZT367qp2V0cfIGKFtdWr3pNHBw6QHda0OfUbNLAGhgwMq8P5oPeN6n167iXatEY6qEUHt+hyzXXXi14+j3bpWgOjTm3z1NAnZfMvv7irz/L+ob5Wz2GjrD2HGu6a56DXTXtAr7cu41/YuEnMewz1i7XORQsXit76oINccrqUK19eet7XS06uWUv08YOxFj33X62po1625rvUn4dYi97nqI7u+zW3Wk/9ufG6a+22i7Uv2xBAAAEEEMiLQNIGx7ycdHb76iCHuvXqWY83zAyQ2gv3yccfyacbNhgFh+y+Jz+265QvtWvXsQZmHC1pVgjSgT+ffPSRfGWNII829VC8j/OYSpWsS7mnS+XKVeyq/7AmZ9fnMWuPmYbWA73oHyGVq1aVStZxaa+o3pepIe4z6zGTG62ny8RjnkSde1T/MClXrpyUKVtWdu3caQ+i2WqN2P/hh+9l5fLlYfcyZmegjzDUS+56eXrL5s3yztsrs9uF7QgggAACCORZgOCYZ0IqQAABBBBAAAEECoYAwbFgtDNniQACCCCAAAII5FmA4JhnQipAAAEEEEAAAQQKhgDBsWC0M2eJAAIIIIAAAgjkWYDgmGdCKkAAAQQQQAABBAqGAMGxYLQzZ4kAAggggAACCORZgOCYZ0IqQAABBBBAAAEECoYAwbFgtDNniQACCCCAAAII5FmA4JhnQipAAAEEEEAAAQQKhgDBsWC0M2eJAAIIIIAAAgjkWYDgmGdCKkAAAQQQQAABBAqGAMGxYLQzZ4kAAggggAACCORZgOCYZ0IqQAABBBBAAAEECoYAwbFgtDNniQACCCCAAAII5FmA4JhnQipAAAEEEEAAAQQKhgDBsWC0M2eJAAIIIIAAAgjkWYDgmGdCKkAAAQQQQAABBAqGAMGxYLQzZ4kAAggggAACCORZgOCYZ0IqQAABBBBAAAEECoYAwbFgtDNniQACCCCAAAII5FmA4JhnQipAAAEEEEAAAQQKhgDBsWC0M2eJAAIIIIAAAgjkWYDgmGdCKkAAAQQQQAABBAqGAMGxYLQzZ4kAAggggAACCORZgOCYZ0IqQAABBBBAAAEECoZAwgbHw48oVzBagLNEAAEEEEAAAQQiBLb+/lvEmsT4SHBMjHbgKBBAAAEEEEAAgZAAwTFEwRsEEEAAAQQQQACBZBRI2B7HZMTkmBFAAAEEEEAAgSALEByD3LqcGwIIIIAAAgggEEcBgmMcMakKAQQQQAABBBAIsgDBMcity7khgAACCCCAAAJxFCA4xhGTqhBAAAEEEEAAgSALEByD3LqcGwIIIIAAAgggEEcBgmMcMakKAQQQQAABBBAIsgDBMcity7khgAACCCCAAAJxFCA4xhGTqhBAAAEEEEAAgSALEByD3LqcGwIIIIAAAgggEEcBgmMcMakKAQQQQAABBBAIsgDBMcity7khgAACCCCAAAJxFCA4xhGTqhBAAAEEEEAAgSALEByD3LqcGwIIIIAAAgggEEcBgmMcMakKAQQQQAABBBAIsgDBMcity7khgAACCCCAAAJxFCA4xhGTqhBAAAEEEEAAgSALEByD3LqcGwIIIIAAAgggEEcBgmMcMakKAQQQQAABBBAIsgDBMcity7khgAACCCCAAAJxFCA4xhGTqhBAAAEEEEAAgSALEByD3LqcGwIIIIAAAgggEEcBgmMcMakKAQQQQAABBBAIsgDBMcity7khgAACCCCAAAJxFCA4xhGTqhBAAAEEEEAAgSALEByD3LqcGwIIIIAAAgggEEcBgmMcMakKAQQQQAABBBAIsgDBMcity7khgAACCCCAAAJxFCA4xhGTqhBAAAEEEEAAgSALEByD3LqcGwIIIIAAAgggEEcBgmMcMakKAQQQQAABBBAIskBSBsdChQtLSkqKpBROEX1fqFChILcR54YAAggggAACARDYv3+/7N+3TzL2ZUhGRob9PtlOK6mCo4bE1CKpklKkSLI5c7wIIIAAAggggECYQEZ6uqSlpyVVgEya4FjECoupRYuFgfMBAQQQQAABBBBIdoG0vXsk3QqRybAkRXAskpoqqalFk8GTY0QAAQQQQAABBIwF0tL2SnpamvF+B3qHhA+O9DQe6B8Jvg8BBBBAAAEE8kMgGXoeEzo46j2NxYuXyI+24zsRQAABBBBAAIEDLrB7966EvucxoYNjUeueRgbCHPCfWb4QAQQQQAABBPJJQAfM7LXueUzUJWGDI72Nifojw3EhgAACCCCAgJ8CidzrmLDBkQExfv5IUjcCCCCAAAIIJKpAIg+USdjgWKxYcSlsTfLNggACCCCAAAIIFCSBfdbk4Hv27E7IU07Y4Fi8REmeCJOQPzIcFAIIIIAAAgj4KaBPmNm9a6efX5HruhM2OJYoeVCuT4odEUAAAQQQQACBZBbYtXNHQh4+wTEhm4WDQgABBBBAAIGCLEBwNGx9ehwNwSiOAAIIIIAAAoERIDgaNiXB0RCM4ggggAACCCAQGAGCo2FTEhwNwSiOAAIIIIAAAoERIDgaNiXB0RCM4ggggAACCCAQGAGCo2FTEhwNwSiOAAIIIIAAAoERIDgaNiXB0RCM4ggggAACCCAQGAGCo2FTEhwNwSiOAAIIIIAAAoERIDgaNiXB0RCM4ggggAACCCAQGAGCo2FTEhwNwSiOAAIIIIAAAoERIDgaNiXB0RCM4ggggAACCCAQGAGCo2FTEhwNwSiOAAIIIIAAAoERIDgaNiXB0RCM4ggggAACCCAQGAGCo2FTEhwNwSiOAAIIIIAAAoERIDgaNiXB0RCM4ggggAACCCAQGAGCo2FTEhwNwSiOAAIIIIAAAoERIDgaNiXB0RCM4ggggAACCCAQGAGCo2FTEhwNwSiOAAIIIIAAAoERIDgaNiXB0RCM4ggggAACCCAQGAGCo2FTEhwNwSiOAAIIIIAAAoERIDgaNiXB0RCM4ggggAACCCAQGAGCo2FTEhwNwSiOAAIIIIAAAoERIDgaNiXB0RCM4ggggAACCCAQGAGCo2FTEhwNwSiOAAIIIIAAAoERIDgaNiXB0RCM4ggggAACCCAQGAGCo2FTEhwNwSiOAAIIIIAAAoERIDgaNiXB0RCM4ggggAACCCAQGAGCo2FTEhwNwSiOAAIIIIAAAoERIDgaNmV+BsdixYrJaafWso94x46dsuHTjTk6+vLlyslxx1Wyy37xxVey7a+/5NRTakrx4sUlLS1d1q3/MGo9NU8+SQ46qKS9Xb9Pv9dr0TLNmjSWxhc2lD2798jCJUtlydLlsnfvXq/irIujQIkSJeT7rzbYNf755zY5sdbpcaw9PlWlFikiP33/hV3ZTz/9LKfXbRCfiqkFAQQQQOCAChAcDbnzMzhWq1ZVVi5dYB+xBrJjKtfI0dFPeP5ZadG8iV32jXnz5cZbusimbzaKBlFdLr+qg7zz7ir7feQ/337xSSg43nL7HTJr9tzIIjJ98iQ5t17dLOt1xWuTp0n3u+713MbK+Ai4g+POnTvl+GqZf1zEp/b41OIOjokabuNzptSCAAIIBFuA4GjYvvkZHAsXLiybN30VOuLyFauE3sd6s3j+HKlV8yS7yNCnRspjTwwLC47tOnSSt5av8KwiVnDUMLBo/mypcWJ1z32dlUveWi7tr7nB+chrnAUIjnEGpToEEEAAgagCBMeoNN4b8jM46hF99+UnUrJk5qXjuvUvkO++/8H7QF1rP173nujlal06XneTLFryVlyC4+BBD0un6zqGvmne/IUy9vkJdg/lHV07y1ln/nfJ9L4H+siEFyeFyvImfgIEx/hZUhMCCCCAQGwBgmNsnyxb8zs4rnp7qRx/3LH2ceklZ730nN3ivixd/eQ69j2O7nW57XH8cuN6OaR0afvrNTR2uqlz2KG4ezq/+fY7qdegcdh2PsRHgOAYH0dqQQABBBDIXoDgmL1RWIn8Do6vT5ogDc8/zz6mx598Sp4c9nTY8Xl92PLj11KoUCFJT8+Qo4+rZhfJa3CsV/dsmTH1ldDXVa5eK8vAGR1Ys2TBnFCZ086oJ5u3/Br6nOxvypQ5VM48I7NXdc0Ha+Xaju2lvnWv57urVsvEl16R//3vT/vezw5XXyUHlTzIDvlTps2IetqnnVJLmjdrYv9hcMQRh8uP1iCSNR+skxUr35FNP/4Ydb+cBMfSpUpJ3bpnhep4//0P7D8gQitcb/QPk8YXNJSzzjpDDj74YPlg7TpZsmSZfPjxJ65S3m/dg6RKW39ULLZ6t2fOesP62dgRGhyT3T2Ohx5yiFzQ6Hypf25dqVChgnz73ffy9jvvyrLlb8uuXbvCvvjYSsdI9eqZP9PLlq/M8WCsM06vLWXLlrXr0mPct2+fHFXhSKlZ82R73apV78vf27fLiVbdV7RpLbVPPUU+//IrmTt3vt2+YQfBBwQQQKAACRAcDRs7v4Nj3wd7ye233Wwf9bQZs+T2bnfZ7+/u0U2u6XC1/f6XX36Ri1pdYb+vcGR5+fCDd+33W7f+ISeflhke8hocnxs9Qi69pKVd72+//y61ansPjvnx28+kaNGidjnn/kr7QwD+GTNqhLRulWnw199/h3pf9dR05Lqeb/++vcPO9JVXJ0uPnveHret5V3fp1uXW0GClsI3/fvhg7Xp7ENOePXuybM4uOJYtW0beXb5YNOjqsm3bNql73oWiAc69lCp1sEx59UWpfdqp7tWh9x9+9LF9DNFG1usAKf3DJjU1NbSPvtm/f7/c2qW7PGd56RIrON7Y6VoZ+PBDovfzRi5paWly021dZf6CxaFNc2dNFQ2BunTu2kOmz5wd2hbrjfNzqcd21LHV7ODoruvm27qJ/rdWseLRWarRIKznw4IAAggURAGCo2Gr53dwvNQKKs4vYO2Nurj1lfYZvLN8kVStUjl0NpWqnCQaMrTnaNKL4+z1H3/yqTRp0cp+n9fg+MbMKVZvWx27Lr1nUu+d9FqWL3nT7rXRbdrb1rX7PV7FjNfpCPPsBuV4Vfrzz79YPWjrvTYZrxv77NPS6uKLjPbTnq2jj6tuBxVnxzkzJofdD6rrtXe4SJEUp4j9quH07HMbZQl8sYKj/uGw8q2FoqFQl99/3yr1GzbN0tuongvnzhSty71osNLeamf5558dctKpZ9o/W846fdWfs5cnPh9W1r2v+3204Dhk8ECr1zbzjx+nbvWKDJH9Bjwqo8c8bxfp1fMu6dG9i/3e/YeUs7/Xq/Ysrl/zjr3p199+k1PqnGO/f3PONKlT+zT7vfZsRlq46+pxTy955bUp7lW8RwABBAqEAMHRsJnzOzi6exDd8+E5PSjO6Tj3P3bpfLP06d3LXu3+xeoOjps2/Rj1ErKGQ+cXt3s6nndXLJYqlY+363319aly5933OV8d9jpr2mtS9+wz7XUr335Xrmh3Tdj23H54ecJYadL4AuPdtdeq4vEnGu/ntYM7OG787HNp3LyVDBk8QDpc3TZU/ImhI+T58RNFw+EJVTNHwd9w8+0y980FoTK6TXvN1GeUFYj0srfTq3fF5a1l6JBHQr2RXtMbRQuOxxxTUZYvfjM0ndLPv2yW8xo1DdUdOgDrjbs99Q+Ou+/tbffeZWRk2FM5jX56WChIzbSmZLrVmprJvax7/205+qgK9ioNuFda7fzRxxtEA+m011+WckccESruFRwPO6ysfPrh+6Hg+dnnX8i1nW61L9GfVONEeW3S+NAALz0+nXJIj809RZUOFNMBY9ktN994vd2rqeW09/K6G2+1d3EHR12hvcbaVu9Zl62rnVBVpr72kugtBLroHyB1zs68ZcRewT8IIIBAAREgOBo2dH4HRz1cnZJHw5z2/lQ58RT73iynB8U5HSfMDXtisLRvl9kr6e6pcQdHZ5/sXt3BUX/JH374YfYuo54dKw8PHOy5+0vjn5OmTS60t2kYaNjYrIfOs1JrZaIFxwceeljGjX9RUlJS5Gdromunl07n2tQ5N9teebmMGDbEPp3IS/Y6GfuXX32T5f4959wvaNhAXn15vP1x+/Z/pGqN8EvJXsFRQ73eX+r0mmmoanBBc897ADWcPjPiSbv+tPR0Of2s80R74tyL3ku4+p237PPS3kPtddR7OHXRe271ErUu2kOot0M423Sd3vf4xYZ1oUvYXsHRPdeouxdQ99dF5xz9YsPa0PkMHzlaHhn8hL1NJxbXqaH02CtavbnZLdoz2uTCRnYxd8+hOzjqeVQ7ubaot7No8H972UL7o26vUOkEZxOvCCCAQIERIDgaNnUiBMcvPl0nOoDA+eV18w3XycD+fewz0V/Yek/bV199LfUbNQubnLvlpVeELtPmNTjqk0qcUDLwkcfl6VFjPCXHPDNcWl96sb3N3UPqWdhg5dnWwI3G//7yN9hN/v7r76jHalKPlnX3OF7app2sWr3GrsLp/XVP0q6XQDWY6KLTEun0RCaL88eC0+bufSODY8tLr5QFc2eE7i398suvpWGTi+weOvd+zvtli+eFLvtrO2p7ei2TX5ko5zeob2+6o0dPeX3KdPu9+17PtevWh+6vddcx/vnRclHzpvYqr+D4+SdrQ/dg9nl4kIwZ+4J7d/v9sCGPSntroJEuzs+3vtcw5/Tmuqeo0t7uOrVPtc+7es3TQ5fX3dNTaQh3wqE7OEa7/eKbzz+2BgwdpF8rzu0g9gf+QQABBAqIAMHRsKETITi6f9HrL75RI4bavXp6X9bCxUvtQStOaHlv5RKpfPxx9llqb4z2yujiDo56qW75isx7vuyNrn+0Z9F55KC7x9EdHAc9OkRGPPOsa6//3mpPlvZo6RK0y3vu4NioSUvRy9W6OHNtup/i4r6k6nWpV/fTUdU3WINDtHevfPlyVjAvrqvtRefh1F5M7e078piqzmr71R0cdXu6dQlXe+B00ZCmvYMaOKMt2pN36KH/DZzRnmxdnF7Tfz9ImUMPCc0h6r5f1R24ov0sXHxRcxn33DN2VV7B0ek11ALRApnOC6qX9XVx1+G+N9L9R8zP338Zuk9UL72//Mpr9r7OLAN6Sb3aSZkDa3SD+zwGDxkqw4ZnHq+907//uC/Jn3dBM9FQzoIAAggUJAGCo2FrJ0Jw1F/A+otYl1aXtxXt8dF7Hz/ZsFH0svHokcPsbTr9zfKl8+3Rvk6QtDdY/7iDY27mcdywfnXofi8dqKCXwb0W9yXlTzd+Jhc0zex99CqbbOvcwfHMcxqGpsz5+rOP7MEo7mDiHpCxYOFiufaGzPvq9Jx12xTr/jn34KZoFtkFR6/9ru7YSZYuW+G1yV7n9GZGLeCxQae+advhenuLO0y5/7hw76b3Kb61aK69yh36dIX7cYRePapOPToqXHsmdXFflm5w3rn2aHBdr1MXXXn1teK+vK/r9ZGa+mhNd/jUaZMuu6K9brYXd3CMdh7ueVQvbHZJjp8X73wHrwgggECyCxAcDVswEYKjjiLV0aS63P9gPxlkXabWex41wA0ZOlz0MYG6PNinv/Tr09vuddGBEXXOyrzMqNvyGhzdo7j1kqVeuvRaZk9/XfSysi7LV7wtV7W/zqtYUq5zB0cdKKE9qro4E6O7g6N7UJM7OGpo2vDh6lCPn+6vgzI2b95i3yfo9BTWP/ecUA9g5KMm3T2Our8u2tvpPGFIB5PUPO1se17CzK3//esObbr23fdW/7cxxrv5Vvh1Lie7eyw7XHujLF66LMueOvhl40eZl/Ijg+PRRx8l61avtPfJbvDSrz99Y5dzB2j92f/lhy9tH2fKKefyuZbTnlOn91cHiumAMV0ie0fdwVF74d3T/tg7WP8QHB0JXhFAoKAKEBwNWz4RgqO7h0WfMd3o/Ab2WbS4pI2sW/+hOPdAurfp/Xd6H56z5DU4ugOhu/fJqd95dd9/5jUi2Cln+qq9qpe3zpxayGRfvZx/3Ak1TXaJWjYewdF9f6pOwXP1NZ3sXrPIL3X3CmYXHHXy8b79H7GC2vuh8Birt9d9SfeEGqd5BszI43F/doepLnfcLVOnz3Rvtt/rZfgF8zLXRwZHDX56frq4A6G9wvWPXq7X+xN1iQyYOlephnPdX+dl/Hjte3aPuN5Pev21Hex9dBqiEcMeD0254+4l1gIER5uJfxBAAIGYAgTHmDxZNyZCcNR7Dp1eRe1N0hGn7kt8+kQXfbKLey66yAEZeQ2Oo54eKm0uu9QGigwCbjX3vWuPPPakDH96lHtzrt+7L4GbVBIZOEz2jSwbj+DonnT6qRHPyKOPD438GnsglP4x4CyxgqM7GGsvpU6F4yyRo7md9e4R8no5Vy/rmizOz5vuo9MPaa935HJlm8tk5PDMUdBePy8/ffd5aNT1ibVOzzJXpdbn/oNJ56OsWfvs0Ne4b9/QKXReGJv5c6bhcPaM1+1QOXbcBLm67ZX24JbIWze0IoJjiJM3CCCAQFQBgmNUGu8NiRAc9cjcgcz+bD2e7vS6mT2P3bvdLg/cd3fYCbinHdENeQ2O7h4krc/rl737fjLtCTrRGtmql2HjsegTRvRRfqaLjjqP11yS8QiOb7+1QE44IXOwS+T8js65PTKgr+j5Okus4OhcknXKPvHYIOuJQpk9zdoGzVteluXRgToC+zTrkXq66LPPdQ5Qk8U95ZN7tLO7jhlTrD9mzskMel7B0R1enxk9VvoPGuze3X7/4gtjpFnTxvZ7HYikA5KcxR1Mf7DmJdUBRs7URc5obB3VX7Hi0Z7760qCo6PJKwIIIBBdgOAY3cZzS6IEx0/WrwqbVHnWnLlyS+c77GPWX5rvv7ss7Pj1Mt1XX2feH6Yb8hoctQ73L/vIaVj08uOad5eFflHHulSqdSXjEo/g+MpLL8iFjc63T18v8eqlXvdS6Zhj5N2Vi0OjpHWbSXDU8nr/oN5HqIved6n3O2qPm7O4eyY1XOotD+s//MjZHPaq095c3LJ52Ihj9/yGWjhy0Ij+POrlbP2Z0MUrOD7+6AC57prMgSo6qvu0M+uFpsnRffT4dR5JvSdTF2feTPuD9Y+7F95Zt8iaYaDj9TeLzpO5cN4sZ7X9qr2PD/YdELaO4BjGwQcEEEDAU4Dg6MkSfWWiBEf3Lzk92sjn9Lov/WkYiJzCJR7B8YFe90j3rp1DWPpIw9cmT5WS1mPrOrRvK8cfd2xoW7RRqqECSfgmHsHxlps6yYB+D9pnr+2kg1N0IvGvvvnGfpxhjzu6hqaUcYhMg6M+QWbVyqWhet5+5z1p07ajU5396r5nVY9j9hvz7CfH6Ej9alWr2k+2aXP5pXabel3uXzx/jtSqeZJdl454HjDoMdF7bOvXO0f6PXR/6Mk3WsArOOrtFt988XEoGGoZ7XX8wJoX8vz658pDve8L1eEedGR/4b//OPf2OuvcPbjun3fd7p7T1Cnv/m+KwTGOCq8IIIBAuADBMdwj20+JEgT14AcAAAkdSURBVByfevIx636tK0LHW7l6rbBHya1cusB+HJsW0MfX6Xb34v5FmpvpeJy63JNCO+siXzUIaQ9R0JZ4BEc1cU9n42W0bds2e5BL0aJF7c2mwVF30gEijz3SP1S9TkCu9706i456XvTm7NBjA531Xq9ewfHE6tWs/WeFJh2P3E/3SU1NtVd7BUfd0PnWm6Tvg71Co8cj69DPei/vzbd1sy+pR26fPnmSnFuvrr1ay7mfCe6+VO6+H9hdB8HRrcF7BBBAwFuA4OjtEnVtogRHvedN733TxasHxn3p75tvv5N6DTLvDXNOzD2Bd6zg6Ewto/td0+kWWbhoiVNF6HX40MftSb6LFEkJrdM3GhaefOrpsMuaYQWS/EO8gqOOFn5x/JjQfYZuFr0vr3GLVvZl2kNKl7Y3RQZH7a3TPwR0ibzH0V757z/uQSwanipXPyXLYw51uppbb74h1Dvp3l/f//jjT/LalGn2IJjIbTofpY6cdj+XWsvoMV1yWVv7EYj6OVpw1G36XPNJE8eFns6i65xFB8Rc3rZD1Em3b7/tZjt4avnPv/hSzr+whbOr/dhNvRdTF302+5n1Gtrv3f/kJDi670nV/6b0vy0WBBBAoCAJEBwNWztRgqPhYR+Q4jrJsz63WEd6L1r8VmhC7APy5QH4Er20f651aVefAa6DTPSxd+57EQ/kKerl7fOsUdnak7h5y6/yhRXE1qxdF3bfYbTj0WlxLmrRzL6ncfnKt6MGvWj763qto5H1jO5yVqj+YdMm0SmfNHCyIIAAAgjkrwDB0dCf4GgIRnEEEEAAAQQQCIwAwdGwKQmOhmAURwABBBBAAIHACBAcDZuS4GgIRnEEEEAAAQQQCIwAwdGwKQmOhmAURwABBBBAAIHACBAcDZuS4GgIRnEEEEAAAQQQCIwAwdGwKQmOhmAURwABBBBAAIHACBAcDZuS4GgIRnEEEEAAAQQQCIwAwdGwKQmOhmAURwABBBBAAIHACBAcDZuS4GgIRnEEEEAAAQQQCIwAwdGwKQmOhmAURwABBBBAAIHACBAcDZuS4GgIRnEEEEAAAQQQCIwAwdGwKQmOhmAURwABBBBAAIHACBAcDZuS4GgIRnEEEEAAAQQQCIwAwdGwKQmOhmAURwABBBBAAIHACBAcDZuS4GgIRnEEEEAAAQQQCIwAwdGwKQmOhmAURwABBBBAAIHACBAcDZuS4GgIRnEEEEAAAQQQCIwAwdGwKQmOhmAURwABBBBAAIHACBAcDZuS4GgIRnEEEEAAAQQQCIwAwdGwKQmOhmAURwABBBBAAIHACBAcDZuS4GgIRnEEEEAAAQQQCIwAwdGwKQmOhmAURwABBBBAAIHACBAcDZuS4GgIRnEEEEAAAQQQCIwAwdGwKQmOhmAURwABBBBAAIHACBAcDZuS4GgIRnEEEEAAAQQQCIwAwdGwKQmOhmAURwABBBBAAIHACBAcDZuS4GgIRnEEEEAAAQQQCIwAwdGwKQmOhmAURwABBBBAAIHACBAcDZuS4GgIRnEEEEAAAQQQCIwAwdGwKQmOhmAURwABBBBAAIHACBAcDZuS4GgIRnEEEEAAAQQQCIwAwdGwKYuXKCmFChUy3IviCCCAAAIIIIBAcgvs379fdu/amZAnUahUmfL7E/HIihUrLoVTUhLx0DgmBBBAAAEEEEDAN4F9GRmyZ89u3+rPS8UJGxyLpKZKamrRvJwb+yKAAAIIIIAAAkknkJa2V9LT0hLyuBM2OBYqXFiKFy+RkGgcFAIIIIAAAggg4JfA7t27ZP++fX5Vn6d6EzY46lkVLVpMUooUydMJsjMCCCCAAAIIIJAsAhnp6bJ3756EPdyEDo70Oibszw0HhgACCCCAAAI+CCRyb6OebkIHRz3AIlaPY6rV88iCAAIIIIAAAggEWSDN6mlMt3ocE3lJ+OCoeAyUSeQfIY4NAQQQQAABBPIqkMgDYtznlhTBUQ+Ynkd3s/EeAQQQQAABBIIikAw9jY510gRHPWC95zG1SCoDZpzW4xUBBBBAAAEEklZAB8Kkpacl7AhqL9ikCo7OCWiATLEmB08pnGKHSZ4w48jwigACCCCAAAKJKqBPhNFpdjL2ZUiGNcl3ok65E8svKYNjrBNiGwIIIIAAAggggIA/AgRHf1ypFQEEEEAAAQQQCJwAwTFwTcoJIYAAAggggAAC/ggQHP1xpVYEEEAAAQQQQCBwAgTHwDUpJ4QAAggggAACCPgjQHD0x5VaEUAAAQQQQACBwAkQHAPXpJwQAggggAACCCDgjwDB0R9XakUAAQQQQAABBAInQHAMXJNyQggggAACCCCAgD8CBEd/XKkVAQQQQAABBBAInADBMXBNygkhgAACCCCAAAL+CBAc/XGlVgQQQAABBBBAIHACBMfANSknhAACCCCAAAII+CNAcPTHlVoRQAABBBBAAIHACRAcA9eknBACCCCAAAIIIOCPAMHRH1dqRQABBBBAAAEEAidAcAxck3JCCCCAAAIIIICAPwIER39cqRUBBBBAAAEEEAicAMExcE3KCSGAAAIIIIAAAv4IEBz9caVWBBBAAAEEEEAgcAIEx8A1KSeEAAIIIIAAAgj4I0Bw9MeVWhFAAAEEEEAAgcAJEBwD16ScEAIIIIAAAggg4I8AwdEfV2pFAAEEEEAAAQQCJ0BwDFyTckIIIIAAAggggIA/AgRHf1ypFQEEEEAAAQQQCJwAwTFwTcoJIYAAAggggAAC/ggQHP1xpVYEEEAAAQQQQCBwAgTHwDUpJ4QAAggggAACCPgjQHD0x5VaEUAAAQQQQACBwAkQHAPXpJwQAggggAACCCDgjwDB0R9XakUAAQQQQAABBAInQHAMXJNyQggggAACCCCAgD8CBEd/XKkVAQQQQAABBBAInADBMXBNygkhgAACCCCAAAL+CBAc/XGlVgQQQAABBBBAIHACBMfANSknhAACCCCAAAII+CNAcPTHlVoRQAABBBBAAIHACRAcA9eknBACCCCAAAIIIOCPAMHRH1dqRQABBBBAAAEEAidAcAxck3JCCCCAAAIIIICAPwIER39cqRUBBBBAAAEEEAicAMExcE3KCSGAAAIIIIAAAv4I/B/rQiWc7Z1CSQAAAABJRU5ErkJggg==;" vertex="1" parent="1">
                    <mxGeometry x="128.36" y="125" width="273.29" height="290" as="geometry"/>
                </mxCell>
                <mxCell id="21" value="&lt;h1 style=&quot;color: rgb(255, 255, 255); font-style: normal; letter-spacing: normal; text-align: left; text-indent: 0px; text-transform: none; word-spacing: 0px; font-size: 11px;&quot;&gt;README.md&lt;/h1&gt;" style="text;whiteSpace=wrap;html=1;fontFamily=Helvetica;verticalAlign=middle;fontSize=11;" vertex="1" parent="1">
                    <mxGeometry x="210" y="91" width="140" height="21" as="geometry"/>
                </mxCell>
            </root>
        </mxGraphModel>
    </diagram>
</mxfile>